<?xml version="1.0" encoding="UTF-8"?>
<svg id="Layer_1" xmlns="http://www.w3.org/2000/svg" xmlns:xlink="http://www.w3.org/1999/xlink" version="1.1" viewBox="0 0 2000 807.5">
  <!-- Generator: Adobe Illustrator 29.7.1, SVG Export Plug-In . SVG Version: 2.1.1 Build 8)  -->
  <defs>
    <style>
      .st0 {
        fill: url(#linear-gradient1);
      }

      .st1 {
        fill: url(#linear-gradient);
      }

      .st2 {
        fill: #00528f;
      }

      .st3 {
        fill: #14876f;
      }
    </style>
    <linearGradient id="linear-gradient" x1="490.5" y1="499.7" x2="520.4" y2="555.4" gradientUnits="userSpaceOnUse">
      <stop offset="0" stop-color="#40b87d"/>
      <stop offset=".3" stop-color="#3cb37b"/>
      <stop offset=".6" stop-color="#31a577"/>
      <stop offset=".9" stop-color="#1e8f70"/>
      <stop offset="1" stop-color="#17866e"/>
    </linearGradient>
    <linearGradient id="linear-gradient1" x1="471.4" y1="512.9" x2="501.2" y2="568.5" gradientUnits="userSpaceOnUse">
      <stop offset="0" stop-color="#40b87d"/>
      <stop offset="1" stop-color="#17866e"/>
    </linearGradient>
  </defs>
  <g>
    <path class="st2" d="M481.6,419.7c-3.4-5.3-6-11.1-7.9-17.1-45.8,0-91.8,0-137.6,0-2.6,11.2-15.1,18-26.5,16.8-11.4-1.2-21.3-8.7-28.8-17.5-14-16.5-21-37.7-26.9-58.5-5.9-20.8-11.1-42.2-22.4-60.7-1.1-1.8-2.2-3.5-3.4-5.1s-2.5-3.3-3.8-5c-1.3-1.6-2.7-3.2-4.1-4.7-1.4-1.5-2.9-3-4.4-4.3-1.5-1.4-3.1-2.7-4.8-4-1.6-1.2-3.3-2.4-5-3.5-1.7-1.1-3.5-2.1-5.3-3-1.8-.9-3.7-1.7-5.5-2.4-1.9-.7-3.8-1.3-5.8-1.8-2-.5-4-.9-6-1.1-.5,0-1-.1-1.5-.2s-1.4-.2-1.4,0,.9.7,1,.8c.3.3.7.5,1,.8,1.3,1.1,2.4,2.4,3.5,3.8,1,1.4,1.9,2.8,2.7,4.4.7,1.6,1.4,3.2,1.8,4.8.5,1.7.8,3.4,1,5.1.2,1.7.2,3.5,0,5.2-.1,1.7-.4,3.4-.8,5.1-.4,1.7-1,3.3-1.8,4.8-.7,1.5-1.7,3-2.7,4.4s-.6.8-1,1.2c21.4,23.2,27.7,56.7,27.6,88.2-.1,31.6-5.6,63-3.7,94.5,3.3,55,30.3,108.1,72.8,143.2,41.2,34,95.4,51.3,131.7,90.5-18.6-46.8-37.5-98-23.3-146.3,7.9-26.9,25.6-50.1,46.8-68.4,21.2-18.3,45.8-32.2,70.7-45.1-10.6-5.8-19.5-14.4-26-24.6Z"/>
    <path class="st1" d="M589,363.4c1.1,1.4,1.6,2.4,2.1,3.3,4.3,8.7,7.9,16.3,11.7,25.1,1.6,3.7,2.9,7.6,4.1,11.5,2.9,9.1,5.2,18.5,6.3,28,1.7,15,2.1,29.8-4.8,43.9-4.7,9.7-12.1,17-21,22.8-4.1,2.7-8.3,5.5-12.9,7.5-8.4,3.6-17,6.9-25.7,9.8-11.3,3.9-22.8,7.5-34.3,10.9-12.3,3.6-24,8.7-35.3,14.6-15.1,7.8-28.5,18-39.6,30.9-8.1,9.5-14.3,20.4-19,32.2-4.9,12.2-7.1,25-8.5,38-.9,8.4-1.7,27.9-1.7,29.3-.3,0,.3,0,0,0-1.2-3.3-2.9-6.5-4-9.8-2.4-7.7-5-15.3-7-23.1-2.4-9.3-3.6-18.8-3.9-28.3-.3-9.4-.1-18.9,1-28.3,3-24,12.5-45.1,28-63.5,12.8-15.3,27.8-28,45-38.2,6.3-3.7,12.3-7.7,18.6-11.4,6.5-3.8,13.1-7.3,19.7-11.1,3-1.7,5.8-3.8,8.7-5.5,8.3-4.8,16.4-9.8,23.8-15.9,15.4-12.6,28.2-27.3,37.8-44.8,4.5-8.1,7.9-16.6,9.9-25.6.2-.5.2-.9.7-2.2Z"/>
    <path class="st2" d="M576.2,333.3c-.6,8.6-2.4,17.3-5.1,25.6-3.3,10.3-7.9,20.2-13.9,29.1-3.7,5.5-7.2,11.2-11.2,16.5-3.4,4.5-7.5,8.5-11.2,12.8l-.7-.4c0-1.6,0-3.2.2-4.8,1.7-18.3,2.4-36.7,1.9-55.1-.3-12.8-1.7-25.5-5.9-37.7-1.4-3.9-3.2-7.9-5.6-11.3-4.4-6.1-9.1-12.1-14.1-17.6-4.5-4.9-9.6-9.2-14.5-13.7-8.5-7.7-17-15.4-25.5-23.1-2.9-2.6-6-5.2-8.9-7.9-11.7-10.8-23.6-21.5-33.9-33.7-6.2-7.3-11.9-15-17.8-22.5-1.3-1.6-1.7-3.4-1.7-5.4,0-18.7,0-81,0-81,.9,1.1,8.6,14,11.6,19.7,1.8,3.4,3.9,6.6,5.9,9.9,6.8,10.8,13.5,21.7,21.5,31.6,11,13.6,23,26.3,36.2,37.9,8.4,7.4,16.8,14.8,25.3,22.2,6,5.2,12.2,10.1,18,15.5,7.2,6.7,14.4,13.4,20.9,20.8,7,8,13.8,16.4,19,25.9,8,14.5,10.7,30.5,9.5,46.5Z"/>
    <path class="st0" d="M417.5,668.7c1.3-14.8,3.3-29.4,8-43.6,3.7-11.2,8.6-21.8,15.6-31.4,4.4-5.9,9.8-10.7,15.5-15.3,11.8-9.6,25.3-16.1,39.5-21.4,9.6-3.5,19.4-6.2,29.2-9,16.8-4.8,33.5-9.9,48.8-18.8,13.1-7.6,23.3-18.1,31-31.1.5-.8.9-1.5,1.4-2.3.1-.2.4-.3.8-.5-2,12.2-5.6,23.8-10.7,35-4.3,9.4-8.8,18.7-14.6,27.3-4.2,6.1-8.8,11.9-13.2,17.8-4.7,6.2-10.2,11.7-15.9,17-10.6,9.8-22.2,18-35.5,23.6-7,3-14.2,5.6-21.4,8.4-15,5.7-28.9,13.5-41.7,23.1-5.6,4.2-11.1,8.6-16.3,13.2-4.7,4.3-9,9-13.4,13.6-2.4,2.6-5,5.3-7.3,8,0,0-.2-9.3.2-13.8Z"/>
    <path class="st2" d="M400.8,184.5c0,2.6-1.1,4.6-2.8,6.6-3.9,4.5-7.4,9.4-11.4,13.9-7,7.7-14.3,15.2-21.6,22.7-2.5,2.6-5.1,5-7.7,7.4-8.8,8-17.5,16-26.4,23.9-7.3,6.5-15,12.7-22.3,19.3-6.8,6.2-13.6,12.4-19.7,19.2-8.3,9.2-12.9,20.3-14.4,32.8-.7,6.5-.9,13-.8,19.5,0,4.3.6,8.6.9,13,0,1.2,0,2.5,0,3.7-.3,0-.6.1-.9.2-1.8-3.4-3.7-6.7-5.2-10.2-3.3-7.6-6.8-15.2-9.4-23-4.5-13.6-8.4-27.3-8-41.9.4-13.6,5.3-25.3,13.5-35.9,5.5-7.1,12.5-12.7,19.4-18.4,11.5-9.7,23.2-19.1,34.7-28.9,6.5-5.5,12.6-11.5,18.9-17.3,9.1-8.3,16.6-18,24.9-27,2.5-2.7,4.4-6,6.7-8.9,11.2-14.2,20.5-29.5,28.1-45.9.7-1.6,3.6-6.1,3.5-6.1,0,0,0,56.8,0,81.2Z"/>
    <path class="st2" d="M175.7,283.1s0-2.4,0-3.5c-.2-11.2-6.2-19.2-14.6-25.6-3.2-2.4-6.7-4.9-10.8-6.6.8,0,3.7-.1,4.5-.1,1.9,0,3.7,0,5.6.2,3.7.3,7.3.9,10.7,2.3,6.1,2.6,11.1,8.2,12,14.8.5,3.5-.2,7.1-1.6,10.3-.7,1.6-1.6,3.2-2.6,4.7-.5.7-.9,1.4-1.5,2s-1.5,1.5-1.5,1.5Z"/>
    <path class="st2" d="M482.2,380.8c-2.5,0-5-.1-7.5-.2-7.8-.1-14.8-2.3-20.7-7.6-4.9-4.3-9.9-8.4-14.7-12.8-5.4-4.9-11.4-8.5-18.4-10.6-.4-.1-.8-.2-1.1-.3-1.1-.4-2.1-.7-2.8-1-.5-.1-.9-.3-1.3-.5,0,0-.1,0-.2,0-1-.4-2-1.3-2.4-2.2,0-.2-.2-.4-.3-.7-.3-1.2-.4-2.8-.4-5.1,0-5.2,1.9-5.8,9.7-11.9,7.8-6.1,6.5-14.7,3.5-18.5-5-6.5-20.5-21.9-20.5-21.9,0,0-13,12.1-16.8,16.4-3.9,4.3-7.9,10.1-5.8,16,2.1,6,12.3,12.9,14.3,14.5,2,1.6,2.2,4.9,2.2,4.9,0,0-.1,4-.1,5.7-.3,1.1-1.1,1.8-2.3,2.3-1.3.5-2.6,1.1-3.9,1.6-1.7.4-3.4.9-4.9,1.5-1.2.4-2.4.8-3.6,1.3h0c-.2,0-.3.1-.5.2h0s0,0,0,0c-4.6,2.1-8.8,4.9-12.6,8.3-4.8,4.4-9.9,8.5-14.7,12.8-5.9,5.3-12.9,7.4-20.7,7.6-2.5,0-5.1.1-7.6.2,0,0,0,0,.1,0,.2.2,1,1,1.2,1.1,1.5,1.5,2.7,3,3.7,4.6.4.6.7,1.2,1.1,1.9.3.6.5,1.1.8,1.7.7,1.8,1.2,3.6,1.4,5.5h0c.8,0,137.6,0,137.5,0,.7-5,3.2-9.6,7.3-13.7.4-.4.8-.8,1.3-1.1,0,0,0,0,0,0ZM392.5,315.2c0-6.4,5.6-11.6,12.4-11.6s12.4,5.2,12.4,11.6-5.5,11.6-12.4,11.6-12.4-5.2-12.4-11.6Z"/>
  </g>
  <g>
    <path class="st2" d="M915.5,619.2c0-.4,0-.6,0-.8-.3-8.4-.7-16.7-1-25.1,0-.7-.2-1.4-.4-2.1-.4-1.4-1.2-2.4-2.6-2.9-1.6-.5-3.1-.9-4.8-1.4-.1-.7.4-.9,1.1-.9,2.5.1,5,.2,7.5.4,5,.4,10,.4,14.9,0,2.8-.2,5.6-.3,8.4-.5.2.8-.2,1.1-.8,1.2-.9.2-1.9.5-2.8.7-2.4.6-3.7,2.2-4,4.5-.3,3.3-.6,6.7-.7,10.1-.2,10.1-.4,20.1-.4,30.2,0,6.7.6,14.6.9,21.4,0,.6.2,1.1.2,1.7.3,2.4,1.9,3.7,4.3,4.1,1.1.2,2.1.4,3.2.6.1.8-.4,1-1.1,1-2.5-.1-4.9-.2-7.4-.4-6-.5-11.9-.2-17.8.1-1.9.1-3.7.2-5.6.3-.2-.7.1-1,.7-1.2,1.1-.3,2.2-.5,3.3-.8,1.9-.6,3.1-1.8,3.4-3.7.3-2.2.6-4.3.7-6.5.3-8.2.5-17.7.7-25.9,0-.2,0-.4,0-.7h-33.6c0,.3,0,.5,0,.7,0,9.5.2,20.1.9,29.6,0,1.1.3,2.3.5,3.4.3,1.6,1.3,2.7,3,3.1,1.4.4,2.9.7,4.4,1,0,.8-.4,1-1.1.9-2.4-.1-4.9-.2-7.3-.4-6-.5-12-.3-18,.2-1.8.1-3.6.2-5.4.3-.2-.7,0-1,.7-1.2.9-.2,1.7-.4,2.5-.6,2.8-.6,4.2-2.4,4.4-5,.2-2.4.4-4.7.5-7.1.7-14.8.9-30.8.2-45.6-.1-3.2-.5-6.4-.7-9.5-.2-2.4-1.5-3.9-4-4.5-1.2-.3-2.5-.6-3.7-.9-.1-.9.5-1,1.2-1,2.5.1,5,.2,7.5.4,4.9.4,9.8.4,14.8,0,2.8-.2,5.7-.3,8.5-.5.1.7-.1,1-.7,1.2-.7.2-1.4.3-2.1.5-3.5.9-4.7,2.2-4.9,5.6-.3,4.1-.5,8.2-.7,12.4-.2,4.2-.2,8.4-.4,12.7,0,.3,0,.6,0,1h33.6Z"/>
    <path class="st2" d="M1062.4,625.4c.1-18.5,14.8-35.1,34.6-38.6,12.6-2.2,24.4-.1,34.9,6.9,8.4,5.7,13.4,13.5,14.7,23.1,2.2,16.6-6.8,32.5-22.8,40.3-7.1,3.5-14.6,4.7-22.6,4.2-6.6-.4-12.9-1.8-18.8-4.7-10.7-5.4-17.1-13.7-19.3-24.8-.4-2.1-.5-4.3-.8-6.4ZM1130.7,624.1c0-5.6-.7-10.8-2.4-15.9-1.9-5.6-4.9-10.6-10-14.3-7.4-5.4-19.4-6.3-27.6,0-4.2,3.3-7,7.4-8.8,12.1-4.1,11-3.9,22.1,0,33.2,1.7,5,4.5,9.4,8.7,13,7.3,6.2,18.2,7.3,26.3,2.7,4.9-2.8,7.9-6.9,10.1-11.6,2.8-6.2,3.7-12.7,3.8-19.1Z"/>
    <path class="st2" d="M1645.3,661.3c-.1-.7.2-1,.7-1.1.7-.1,1.4-.3,2.1-.5,3.3-.8,4.5-2.2,4.9-5.3.3-2.4.4-4.8.5-7.2.6-12.8.9-26.7.4-39.5-.2-4.9-.5-9.8-.9-14.7-.3-3.2-1.5-4.4-4.8-5.3-.8-.2-1.5-.3-2.3-.5-.3,0-.5-.3-.7-.5.3-.2.6-.6.8-.6,1.2,0,2.3,0,3.5,0,10.8.9,21.7.6,32.5.4,4.8-.1,9.5-.4,14.3-.6,1.4,0,1.4,0,1.5,1.3.4,5,.8,10.1,1.1,15.1,0,.2.1.5,0,.7-.2.3-.4.5-.7.7,0,0-.5-.3-.6-.5-1.1-2.1-2.1-4.2-3.2-6.3-2.4-4.3-6.2-6.8-11.4-7.2-3-.2-6.1-.3-9.2-.2-3.8.2-5.1,1.7-5.3,5.2,0,.8,0,1.6,0,2.4,0,7.4,0,14.8,0,22.1,0,.3,0,.6,0,1.1,4-.4,7.9-.8,11.8-1.3,2.3-.3,3.9-1.6,4.8-3.6.7-1.7,1.3-3.4,2-5.2,1,0,1.2,0,1.1,1.2-.2,2.8-.5,5.6-.4,8.4,0,4.2.3,8.4.4,12.6,0,.4.3.9-.4,1.1-.7.1-.8-.4-1-.8-.8-2.5-1.6-5-2.4-7.4-.4-1.2-1.1-1.8-2.4-1.9-4.3-.3-8.6-.5-13-.8,0,0-.2,0-.3,0,0,.2,0,.4,0,.7.3,9.3.5,19.7.8,29,.1,3.9,1.4,5,5.5,5.3,3.9.3,7.8,0,11.6-.6,5.9-1.1,9.7-4.4,11.7-9.6.9-2.3,1.5-4.7,2.3-7.1,1-.1,1.2,0,1.1,1-.7,6.3-1.2,12.5-1.2,18.8,0,1-.3,1.2-1.5,1.2-3-.1-6-.3-9-.4-11.3-.4-22.5-.7-33.8-.3-3.2.1-6.5.4-9.7.5-.3,0-.7,0-1,0Z"/>
    <path class="st2" d="M1302,586c.2.7-.2.9-.8,1-1.1.3-2.3.5-3.4.9-2.3.7-3.7,2.2-4.1,4.2-.2.9-.4,1.9-.4,2.8-.5,15.5-.3,32,.2,47.5,0,3.1.9,6,3.2,8.5,2.3,2.5,5.5,3.7,9.2,4.2,5.3.7,10.6.7,15.7-.7,6.4-1.7,10.1-5.6,11.3-11.1.4-1.8.4-4.7.4-6.6,0-13.8,0-27.5,0-41.3,0-1.1-.1-2.2-.3-3.3-.3-1.9-1.6-3.3-3.8-3.9-2-.5-4-.8-6-1.2-.4,0-1.1.1-1-.6,0-.7.7-.6,1.2-.6,1.7,0,3.5.1,5.2.3,5.7.6,11.5.4,17.2-.1.7,0,1.4,0,2.2,0,.2.7,0,1-.8,1.1-1.3.2-2.6.5-3.9.8-2.5.6-3.8,2.1-4.1,4.3-.1,1.1-.2,2.2-.2,3.4,0,13.8,0,27.6,0,41.4,0,3.7-.3,8.2-1.8,11.6-2.8,6.2-8.3,9.8-15.6,11.5-6.7,1.5-13.4,1.5-20.2.8-4.7-.5-9.2-1.5-13.4-3.6-6.8-3.4-10.3-8.5-10.3-15.1,0-12.7,0-26.4,0-39.1,0-3.3-.1-6.7-.2-10,0-3.1-1.8-5.1-5.3-5.9-.5-.1-1.5,0-1.3-.8.2-.8,1.1-.4,1.7-.4,6.1.1,12.1.4,18.2.5,3.2,0,6.4-.3,9.6-.4.6,0,1.2,0,1.9,0Z"/>
    <path class="st2" d="M1517.5,607c-.8-1.9-1.5-3.9-2.4-5.7-1.8-3.8-4.3-7.2-8-9.6-4.2-2.7-8.7-3.6-13.6-2.3-6.1,1.6-9.3,7.4-7.5,13.1,1.1,3.5,3.6,6.1,6.7,8.2,2.7,1.9,5.7,3.5,8.5,5.2,3.9,2.3,7.8,4.5,11.6,7,3.4,2.3,6.2,5.2,7.6,8.9,2.6,7,1.4,14.1-3.3,20-4.5,5.6-10.8,8.1-18,8.9-4.8.5-9.4-.3-14.1-1-1.3-.2-2.6-.3-3.9-.4-1.6,0-3.1.4-4.5,1.1-.4.2-.9.5-1.3.7-.6.3-1,.1-1.1-.5,0-.3,0-.6-.1-1-.5-5.7-1.1-11.4-1.6-17.1-.2-1.7-.4-3.5-.6-5.2,0-.2-.1-.5,0-.7.2-.3.4-.7.7-.8.5-.2.6.2.8.6,1.1,3.5,2.4,7,4.4,10.2,2.3,3.8,5.1,7,9.4,9,4.8,2.2,9.9,2.8,15,1.4,4.8-1.3,7.8-5,8.5-9.6.7-5.5-1.5-10.4-5.9-13.8-2.9-2.2-6.2-4.1-9.3-6-4-2.4-8.1-4.7-12-7.2-3.4-2.3-6.2-5.1-7.7-8.9-2.4-6.2-1.5-12,2.7-17.2,4-5.1,9.6-7.5,16.2-8.2,4.3-.5,8.6.2,12.8.9,1.6.3,3.3.4,4.9.3,1,0,2-.7,3.1-1.1.9-.3,1.2-.2,1.2.7.2,6.1,1.3,12.2,2.2,18.3.2,1.3,0,1.6-1.1,1.8Z"/>
    <path class="st2" d="M931,354.4c-5.7,1-7.7,4.8-10.2,7.8-19,23.2-37.9,46.4-56.8,69.6-3.3,4-6.5,8.1-9.9,12-4.9,5.5-6.8,5.7-11.5,0-10.5-12.5-20.8-25.2-31.1-37.8-12.1-14.7-24.2-29.5-36.3-44.1-2.2-2.6-4.8-4.8-8.1-8-1,3.1-1.8,4.7-1.9,6.5-.3,3.6-.2,7.1-.2,10.7,0,43.5,0,81.4,0,124.9,0,13.8-.2,14-13.3,14.1-9.9,0-19.8,0-29.7,0-8.6,0-9.6-1.1-9.6-10.2,0-30.3,0-55,0-85.3,0-43.5,0-87,0-130.5,0-2.2,0-4.4,0-6.6.1-10.1,1.1-11.1,11.3-11.2,11,0,22,.2,32.9-.1,6.7-.2,11.6,2.2,15.9,7.6,20.5,25.5,41.2,50.7,61.9,76,2.8,3.4,5.5,6.8,8.3,10.1,5.1,5.8,6.8,5.8,12.1-.3,1.2-1.4,2.4-2.9,3.6-4.4,21.8-26.8,43.7-53.6,65.3-80.6,4.7-5.8,9.7-8.7,17.2-8.4,11,.5,22,0,32.9.1,9.8,0,10.9,1,10.9,10.7,0,76,0,146.4,0,222.4,0,1.6-.1,3.3-.2,4.9-.2,3.7-2.2,5.6-5.7,5.6-13.4,0-26.8.2-40.2,0-4.7,0-5.8-1.7-6.2-6.8-.2-2.5,0-5,0-7.4,0-44.3,0-83.1,0-127.4,0-4.5-.7-9-1.1-13.8Z"/>
    <path class="st3" d="M1378,354.3c-3.7,4.4-2.8,8.6-2.8,12.6,0,44.9,0,78,0,122.9,0,14.3,0,20.1-13.9,20.1-11.7,0-18.8,0-30.5,0-8.3,0-9.3-7-9.6-15.5,0-1.7,0-3.3,0-5,0-73.2,0-134.8,0-208q0-15.3,14.8-15.3c9.9,0,19.8.5,29.7-.1,8-.5,13.3,2.6,18.3,8.7,37.5,45.1,75.3,89.9,113,134.8,3.5,4.2,7,8.5,10.7,12.6,1.7,1.9,3.9,3.3,7.5,6.3.4-6.5.8-10.7.8-15,0-43.8,0-87.6,0-131.3q0-15.8,15.9-15.9c9.9,0,19.8,0,29.7,0,7.6,0,8.6,1.1,9,8.5,0,1.9,0,3.9,0,5.8,0,73.8,0,141.7,0,215.5q0,13.9-13.5,13.9c-10.5,0-20.9-.4-31.4.1-7.7.4-12.8-2.5-17.6-8.3-29.6-35.6-59.4-65.1-89.1-100.5-11.3-13.5-22.7-27-34.1-40.4-2-2.4-4.5-4.3-7.1-6.7Z"/>
    <path class="st2" d="M1019.4,274c-1.7-2.9,0-6.7,3.3-7.2,1.7-.3,3.1-.4,4.6-.5,13.1-.1,26.3,0,39.4-.1,5.6,0,11,2.5,14.5,7,20.9,27.2,42.1,54.3,63.1,81.4,7.3,9.4,8.5,9.4,16-.3,20.6-26.7,41.3-53.2,61.6-80.1,4-5.3,10.2-8.3,16.8-8.1,12.3.4,24.7,0,37,.2,2.6,0,5.3.4,7.9.7,2.1.3,3.5,2.2,3.1,4.3-.6,3-2.6,5-4.1,7.1-20.2,28.2-40.4,56.2-60.7,84.4-12.8,17.7-25.4,35.5-38.3,53-3.6,4.8-5.3,9.8-5.2,16,.1,12.2,0,19.1,0,31.3,0,11.5,0,22.9,0,34.4,0,2.3,0,4.7,0,7-.2,3.3-2.9,5.8-6.1,5.8-13.4,0-26.8.2-40.2,0-4.6,0-6-1.8-6.4-6.8-.3-3.3,0-6.6,0-9.9,0-9.2,0-18.3,0-27.5,0-13,0-20.8.1-33.8,0-6.4-1.9-12.7-5.6-17.9-32.6-45.1-65.1-90.3-97.5-135.5-1.1-1.5-2.1-3.2-3.2-5Z"/>
    <path class="st2" d="M1727.8,266.1c36.5,0,73,0,109.4,0,2.2,0,4.3,0,6.5,0,3.8.2,6.1,2.1,6.1,6.2,0,13.8.2,27.5,0,41.3,0,5-1.5,6.1-6.5,6.5-3.5.3-7,.1-10.5.1-22.7,0-45.4,0-68.1,0-9.9,0-10.6.8-10.7,10.8,0,57,0,108.4,0,165.4q0,13.7-13.3,13.7c-10.5,0-21.1.1-31.6,0-6.5-.1-7.4-1.1-7.8-7.7-.2-2.7,0-5.5,0-8.3,0-55.3,0-105.1,0-160.5,0-13.4,0-13.4-12.9-13.5-23.5,0-47,0-70.5,0-2.2,0-4.3,0-6.5-.1-3.9-.2-6.1-2.4-6.1-6.3-.1-13.8-.1-27.5,0-41.3,0-4.3,2.6-6.4,6.9-6.4,2.2,0,4.3,0,6.5,0,36.5,0,73,0,109.4,0Z"/>
  </g>
</svg>