<?xml version="1.0" encoding="UTF-8"?>
<svg id="Layer_1" xmlns="http://www.w3.org/2000/svg" version="1.1" viewBox="0 0 2000 432.4">
  <!-- Generator: Adobe Illustrator 29.8.1, SVG Export Plug-In . SVG Version: 2.1.1 Build 2)  -->
  <defs>
    <style>
      .st0 {
        fill-rule: evenodd;
      }

      .st0, .st1 {
        fill: #20518a;
      }

      .st2 {
        fill: #f5f5f5;
      }
    </style>
  </defs>
  <polygon class="st2" points="1831 161.8 293.8 162.5 293.8 162.6 222.4 162.5 169 270.5 1706.2 269.8 1706.2 269.8 1777.6 269.8 1831 161.8"/>
  <g>
    <g>
      <path class="st0" d="M282.8,208s0,0,0,0c0,0,0,0,0,0h0ZM293.6,198c.5.1,3.4,0,3.8-.2h0c-.5-.3-1.1-.2-1.8-.3h-.9c-1.7-.4-4.2-.7-6.3-.4-.3,0-.7,0-1-.1-.9-.1-2,.1-2.7.2-.5,0-1,0-1.5-.1-.6.1-1.3.3-1.9.4-.4,0-.8-.1-1.3,0-.9.2-2.4.5-3.3.2,0,0,0,0,0,0,0,0,0,0,0,0h0c0-.4-.3-.5-.3-.6-.2-.5.2-1.1-.2-1.3-.1.6-.7,1-.8,1.7,0,0-.1,0-.2,0,0,0-.3.8-.3.9h0c0-.2,0-.4,0-.7h0c-.2.2-.4.4-.6.6,0,0,0,0,0,0,0-.1-.2-.4-.4-.4-.2,0-.3.3-.5.3-.3,0-.7,0-1,0-.5.1-1,.2-1.4.3-.6.2-1.3.3-2.1.4-.3,0-.7,0-1,0-.8.1-1.5.3-2.3.5-1,.2-2,0-2.9.2-.4.1-.9.2-1.3.3h-.5c-.4.1-.8.4-1.3.5-.3,0-.7,0-1,0-.8.1-2.7.3-3.1.8.3.3.7-.1,1.1,0,.7.2,1.6-.1,2.5,0-.2,0-1.6.3-1.8.4-.2,0-.3,0-.5,0-.2,0-.5.2-.7.3,0,.1,0,0,.1.2.3,0,.8-.1,1.2,0,0,0,.2,0,.3,0,.2,0,.4,0,.6-.1.2,0,.5.2.8.1.4,0,1.5-.2,1.9,0,0,0,0,0,0,0h0c-.2,0-.3,0-.4.1h-1c-.6,0-1.3,0-1.9.1,0,0,0,0,0,0,.4.5,1.2.2,2,.4.3,0,.7.2,1,.2-.5.1-1,.2-1.5.3-.3.2-.7.4-1,.6v.3h0c.2.1.5,0,.7-.1.1,0,.2,0,.3,0,.4.1,1.1,0,1.3-.1.1.1.2.2.4.3.4,0,.7-.2,1.1-.2.1,0,.3,0,.4.1.2,0,.4-.1.6-.2.3,0,.6.1.8,0,.1,0,.2-.1.3-.2.1,0,.2.1.4.2.1,0,.3,0,.4-.1.5,0,.9,0,1.4,0-.3.3-.7.2-1.1.3-.4.1-.7.1-1.2.2-.2.1-.4.2-.5.3-.1,0-.7.2-.8.2h0c.5.6,1,.1,1.8.3.8.2,1.6,0,2.5,0h0c-.6,1.3-1.2,2.9-1.8,4.2-1.6.3-3.1.7-4.7,1-1.2.4-2.4,1-3.7,1.4-.5.1-1,.3-1.5.4-.7.4-1.4.7-2.2,1.1-.6.2-1.2.5-1.5.9,0,0,0,0,0,.1,0,0,0,0,0,0,.3,0,.6,0,.8-.2.3-.1.6,0,.9,0,0,0,0,0,0-.1.1,0,.2,0,.3,0,.3,0,.7-.1,1.1-.2.2-.1.3-.2.5-.3h.5c.7-.2,1.4-.5,2.1-.3h0c-.6.3-1.5.1-1.8.7,0,0,0,0,.1,0,.2,0,.4-.1.6-.2.2,0,.5,0,.6,0h0c-.6.5-2,.1-2.4.7.1.2.4.4.6.2.2,0,.6.4.9.3.5-.2,1.3-.4,1.6,0,.2,0,.3-.1.4-.2.6-.2,1.2,0,1.7-.4.2.2.5,0,.8,0,0,0,0,0,0,0-.2.3-.5.6-.9.8h-.6c-.3.1-1.1.3-1.2.7-.4.2-.8,0-1.3.2-.8.2-1.6.7-2.5.8.3.3,1,.2,1.5.3.5,0,1.1,0,1.5-.1h.5c.5,0,1-.1,1.5-.2.4,0,.7,0,1.1,0,.2,0,.2-.2.4-.3,0,0,0,0,0,.1.2,0,.3,0,.5,0l-.7,1.6c-.3.9-.6,1.8-.9,2.6-.4.8-.8,1.5-1.2,2.3-.2.6-.5,1.3-.7,1.9-.2.3-.5.6-.7.9-.2.6-.5,1.1-.7,1.7-.3.4-.5.8-.8,1.3-.2.6-.3,1.2-.6,1.8-.2.4-.3.7-.5,1.1-.4,1.4-.7,2.8-1.1,4.3-.2.7-.6,1.3-.8,2-.2.8-.4,1.6-.6,2.4-.2.6-.4,1.3-.6,1.9.6-.8,1.1-1.7,1.7-2.5.2-.4.5-1.2.9-1.3,0,0,0,0,.1,0,.1-.2.2-.3.3-.5,0,0,.2,0,.3,0,.2-.3.2-.6.4-.8l.5-.5v-.3c0-.1.5-.9.6-1l.5-.4c.2-.3.3-.7.6-1h.1c.1.7-.8,1-.8,1.9-.3,0-.5,1-.5,1.2.2-.1.1-.2.2-.4,0-.1.3-.2.3-.3,0-.2.1-.4.2-.6.2-.1.3-.3.5-.4,0,0,0-.2,0-.2.2-.2.4-.4.6-.6.2-.2.3-.5.4-.7.1,0,.2-.1.3-.2.2-.3.4-.5.6-.8.1,0,.1,0,.3,0l-.5.7.2.4c0,.2-.2.4-.2.5-.2.6-.4,1.2-.6,1.7-.2.3-.5.6-.5,1,0,0,0,0,0,0,.5-.4.7-1,1-1.5.7-.9,1.4-1.9,2.1-2.8,0,0,.2,0,.3,0,0,.1,0,.2,0,.4,0,0,0,0,0,0,0,0,0,0,.1,0,.4-.5.7-1.2.9-1.8,0,0-.2,0-.3,0,0,0,0,0,0-.2.1-.2.3-.6.5-.8,0,0,0,0,.1,0,0,.3-.2.5-.3.7v.2c.2,0,.5-.5.5-.7h.2c0,0,0-.2,0-.3l.5-.7c0-.2,0-.3,0-.5,0,0,.3-.3.5-.4,0,0,.3,0,.4,0,0,.1,0,.3-.1.4.7,0,.7-1.6,1.2-1.8,0-.2,0-.3.1-.5-.8,0,0-1,.3-1h0c-.1,0-.4,0-.5-.2,0,0,0,0,0,0,0-.1.3-.3.4-.3,0,0,0,0,.1.1.1.6-.2.8-.2,1.4.1,0,.5-.7.6-.9h.2c0,0,0-.2,0-.3.9-1.6,1.7-3.3,2.5-4.9.1-.3.3-.6.4-.9,0-.3,0-.6.1-.8.2-.2.4-.4.6-.7.3-.5.3-1.1.6-1.6.1-.2.4-.2.5-.3l.2-.6c.1-.2.4-.5.5-.7,0-.2-.1-.3,0-.5,0,0,.1.1.2.1,0,0,0,0,0-.1,1-.2,2-.4,3.1-.6,1-.2,1.8-.1,2.7-.3,1.2-.2,2.4-.7,3.7-.7,0,0,0,0,0-.1h0c.2,0,.4-.1.6-.1,0,0,0,0,0-.1-.2-.1-.9-.3-1.3-.1-.1,0-.2.1-.3.2-.2,0-.4-.2-.6-.3.1-.2.7-.3,1-.3,1-.3,2-.6,2.9-.9,0,0,0,0,0,0-1.6,0-2.9,0-4.1.2-.3,0-.3-.1-.5-.1-.5,0-.9.1-1.5.1,0,0,0,0,0,0,0,0,0,0,0,0h1c1.1-.3,2.4-.8,3.6-.9-.4-.3-1.7,0-2.1-.3h0c.6-.3,1.6-.1,2.3-.3.7-.1,1.1-.5,1.6-.7,0,0,0,0,0,0-.4,0-.7,0-1.1-.1-.4,0-.8,0-1.2,0-.2-.1-.4-.2-.5-.3-.3.4-1.2,0-1.6,0-.2,0-.4.2-.6.2,0,0-.1-.1-.2-.2h0c.4-.3.9-.1,1.5-.3l.9-.6c.5-.2,1-.4,1.4-.7-.7,0-1.4,0-2,.1-1.2,0-2.4.2-3.6.3-.7.1-1.6-.1-2.1,0h-.1c.2-.9,1.2-1.4,1.3-2.4h.3c0-.2.1-.3.2-.4.2,0,.4,0,.6-.1.1,0,.2,0,.4.1.4,0,.9-.3,1.4-.5.3,0,.8,0,.9-.3.4,0,.9-.1,1-.4h0c0,0,.2.1.2.2.2,0,.3,0,.5,0,0,0-.1-.1-.2-.2h0c0,0,0,0,0,0,.1,0,.3,0,.4-.1.2,0,.4.3.7.3.1,0,.2-.1.3-.2.2,0,.4,0,.6,0,.7-.1,1.4-.2,2.2-.3h0c-.2,0-.4-.1-.5-.2,0,0,0,0,0,0,0,0,.2-.2.3-.2.2,0,.2.2.3.2.3.1.9,0,1.3,0,1,0,1.9-.3,2.8-.4-.2-.4-2.4,0-3,0h0c.3-.2.6-.3.9-.4.2,0,.4,0,.6.1.3,0,.5,0,.6-.1.2,0,.5.2.8,0,0,0,0,0,.1-.1.1,0,.3,0,.4.1,0,0,.1,0,.2-.1.1,0,.1,0,.2.1.2,0,.5-.1.7-.2h0s-.6-.4-.6-.4c-.8-.1-1.5-.2-2.3-.3-.6-.2-1.2-.4-1.9-.6,0,0,0,0,0-.1.4-.4,1.4-.3,2.1-.4h.4c0,0,.2-.2.3-.2.4,0,.9,0,1.3,0,0,0,0,0,0,0-.1-.2-.4-.3-.4-.6.3,0,.7,0,.9-.2h0c-.3-.2-.7-.4-1.2-.4.2-.2.6-.2.9-.3,1.2-.4,3.1-.6,4.7-.6h0s-.6-.3-.6-.3c-.7,0-1.3,0-2-.1l-.5-.2c-.3,0-.7,0-1,0,.5-.2,1.4-.1,1.8,0ZM258.9,217l-.5.3s0,0-.1,0c0,0,0,0,0,0,.2-.1.4,0,.6-.2h0ZM259.3,216.8s0,0,0,0c0,0,0,0,0,0,0,0,0,0,0-.1,0,0,0,0,0,0h0ZM258.2,232.7h0c0-.1.1-.3.2-.4,0,0,0,0,0,0,0,.2,0,.3-.2.4ZM258.7,232.1s0,0-.1,0h0s0,0,.1,0h0ZM259.3,230.7s0,0,0,0c0,0,0,0,0,0,0,0,0,0,0,0ZM259.3,230.4c0,0,0,0,0,0h0s0,0,0,0c0,0,0,0,0-.1ZM259.4,230.9s0,0,.1-.1c0,0,0,0,0,0,0,0-.1,0-.2.1ZM260,233s0,0,0,0c0,0,0,0,0-.1h0c0-.1.2-.1.2-.1,0,0,0,.1,0,.2ZM260.2,232.5h0s0,0,0,0c0-.3.1-.4.3-.6.2.1-.1.5-.2.6ZM260.2,228.7s0,0,0,0c0,0,0-.1,0-.2,0-.1.1-.2.3-.2,0-.3.2-.4.2-.7,0,0,.2,0,.3,0,0,0,0,0,0,0,0,0,0,.2-.1.3-.2.2-.4.2-.6.5ZM261,228.8h-.3c0,0,0-.1.1-.2,0,0,.1,0,.2,0h0ZM261,227.6c0-.2.2-.8.3-1,.2.4-.1.9-.3,1ZM261.8,230.1s0,0,.1,0c0,0,0,0-.1,0ZM262.7,228.7h-.1s0,0,0-.1c0-.2.1-.2.2-.3h0s0,0,0,.1c-.2,0-.2.2-.1.3ZM262.9,231.4s0,0,0,0h0c0,0,0,0,0,0ZM262.9,228s0,0,0,0c-.2-.4.2-.7.4-.9.1.2-.3.6-.3.9ZM264.3,221c-.1,0,0,0-.1-.1,0,0,0,0,.1,0h0ZM264.4,220.7s0,0,0,0h0c.1-.1,0-.1,0,0,0,0,0,0,0,0ZM264.7,220.3h0s0,0,0-.1c0,0,0,0,0,0h0ZM265.1,219.6s0,0,0,0h0c0-.1,0-.1,0-.1h0ZM266.3,226.7c0,0,0,0,0-.2,0,0,0,0,0,0,0,0,0,0,0,0h0ZM266,218.7c0-.2,0-.2.2-.3,0,0,.1,0,.2.2,0,0,0,0,0,.1h-.4ZM267.2,220.4h0c0,0,0,0,.1,0h-.1ZM267.5,219.5s0,0,0,0c0,0,0,0,0,0,0,0,0,0,0,0,0,0,0,0,0,0h0ZM267.6,219.3s0,0,0,0c0,0,0,0,0,0h0s0,0,0,.1c0,0,0,0,0,0ZM268.8,221.5h0s0,0,0-.1c.1-.2.3-.3.4-.5,0,.2-.2.5-.3.6ZM268.9,220.2s0,0,0,0c0,0,0,0,.1.1,0,0,0,0-.1,0ZM271.1,216.8c-.2.4-.5.9-.7,1.3,0,.1,0,.3,0,.4,0,0-.2,0-.3,0-.3.4-.7,1-.9,1.5,0,0,0,0,0,0-.1-.1-.3-.4-.2-.6,0-.2.4-.2.6-.1,0,0,0,0,0,0,0,0,0-.1,0-.2-.1,0-.2,0-.3,0,0,0,0-.1,0-.2,0,0,.2-.2.3-.3.2-.4.1-.7.5-.9,0,0,0,0,0,0,.2,0,.2,0,.4-.1,0-.3.1-.4,0-.7h0c0,0,0,.2,0,.3,0,0-.1,0-.3,0-.2-.4.2-.7.4-.9h0c0,0,.2.2.3.3.2,0,.1-.1.3-.1,0-.1-.1-.1-.3-.1,0,0,0-.1,0-.2,0,0,.1,0,.2,0,0-.1,0-.2,0-.4h0c.2,0,.2,0,.3.2,0,.2-.2.5-.3.7ZM274.4,208.6c-.2,0-.3,0-.5,0,0,0,0,0,0,0,.2-.4.3-.8.6-1.1,0,0,.1,0,.2,0,0,0,0,0,0,0-.1.3-.2.6-.3.9ZM279,213.6h0s0,0,0,0h0s0,0,0,0h0ZM278.7,209.7s0,0,0,0h0c0,0,0,0,0,0,0,0,0,0,0,0h.1ZM274.9,207.2c-.2-.6.3-1.1.5-1.4.1,0,.2,0,.4,0-.1.5-.5,1.2-.9,1.4ZM280.1,204.7c-.5,0-1.1.1-1.4.3h-.2c0-.1.2-.3.3-.4.2,0,.3,0,.5,0,0,0,0-.1.1-.2,0,0,.2,0,.2,0h.3c0,0,.2.2.2.3h0ZM282.7,204.2h-.7c.3-.4,1.2-.2,1.7-.4h.1c0,0,0,.1.1.2-.2.2-.8.1-1.2.2ZM285.7,201.6c0,0,0-.1,0-.2,0,0,.2.1.2.2,0,0-.1,0-.2,0ZM287.7,200.5s0,0,0,0h0c0,0,0-.2,0-.3,0,0,0,0,0,0,0,0,0,0,0,0,0,0,0,0,0,0ZM290.4,198.2h0c.1,0,.2,0,.2,0h-.2ZM290.9,198.3h0s0,0,0,0c0,0,.1,0,.2,0,0,0,0,0,0,0Z"/>
      <path class="st0" d="M323,200.3h0c0,.1-.2.1-.2.1,0,.3-.3.7-.6.9,0,0-.2,0-.3.1l-.5.7c-.5.4-1.1.6-1.4,1.2v.6c-.2.3-.8,1-1.2,1.1,0,.3-.2.6-.4.9-.1,0-.2,0-.3,0,.1-.2.3-.4.4-.7,0-.2,0-.4,0-.6.3-.5.8-.7.9-1.4h0c-.2,0-.3.2-.4.3-.5.4-.9.8-1.2,1.2-.2.3-.4.5-.6.8,0-.7.2-.9.4-1.3h0c-.5.1-.8.6-1.3.8.2-.7.7-1.3.9-2.1-.5.4-1,.8-1.5,1.2h-.3s-.2.4-.2.4c-.1.2-.4.3-.4.6-.1,0-.2.1-.4,0,0,0,0,0,0,0,0-.2.2-.4.3-.6,0,0,.1,0,.2,0,.4-.5.4-1.3.8-1.7,0,0,0-.1,0-.2,0,0,0,0,0,0-.1.4-1,1-1.3,1.2-1.1.8-2.2,1.6-3.1,2.7-.3.3-.5.6-.8.9,0,.2-.1.3-.2.5-.3.4-.7.7-1,1.1-.6.9-1,1.8-1.6,2.7-.3.3-.5.6-.8.9-.1.3-.2.6-.3.9-.6.6-1.1,1.2-1.7,1.8-.1.3-.2.6-.4.9-.2.4-.4.7-.6,1-.6.7-1.4,1.5-1.8,2.3,0,0-.1,0-.2.1,0,0,0-2.2,0-2.5,0,0,0-.2.1-.3v-1c0,0,.2-.2.1-.3,0,0-.2-.1-.1-.3,0-.4.4-1.6.3-1.9,0,0-.4,0-.5-.1-.2-.1,0-.3,0-.5l-.3-.6c-.4-.3-.7-.2-.9-.7,0,0,0,0,0-.1-.3,0-.3,0-.5.2l-.2-.8c-.9-.1-1.9,1.3-2.4,1.8l-.7.7-.7,1c-.2.1-.4.3-.6.4-.3.4-.5,1-.9,1.4-.2.1-.4.3-.5.4-.1.2-.3.5-.4.7-.2.2-.4.4-.6.6-.4.6-.6,1.1-1.2,1.5l.3-1.1c0-.3,0-.6.1-.9.3-.9.6-1.7.9-2.6.2-.7.3-1.3.5-2,0-.3,0-.6,0-.9.2-.3.3-.6.5-1,0-.4.1-.7.2-1.1.2-.7.4-1.5.6-2.2,0-.3,0-.6,0-.9.2-.4.4-.9.6-1.3-.5.4-.9,1.1-1.2,1.7-.1.3-.3.8-.6.9,0,0,0,0-.1,0-.4.4-.6.9-.9,1.3-.2.2-.3.4-.5.5,0,.1,0,.3,0,.4-.2.4-.6,1-1,1.3,0-.8.4-1.4.6-2.1-.1,0-.5.6-.5.7,0,.2-.1.4-.2.6-.2.2-.5.3-.5.7-.2.2-.4.4-.6.5,0-.2,0-.3-.1-.5.2-.3.4-.7.4-1.2h0c-.3.6-.7,1.1-1.1,1.5h0c.1-.4.2-.8.3-1.2.2-.4.6-.8.6-1.4,0,0,0,0,0,0h0c-.5,1-1.2,1.9-1.8,2.8-.1.2-.4.4-.5.7,0,0,0,0,0,0-.1-.6,0-.8,0-1.5h0c-.2.5-.4.9-.6,1.4,0,0,0,0,0,0-.1-.4,0-.8,0-1.2h0c-.6,1.5-1.2,2.9-1.8,4.4l-.2,1.3c-.3.7-.6,1.4-.9,2-.2.5,0,1.2-.3,1.7-.2.2-.3.4-.5.6,0,.2,0,.4-.1.6-.1.3-.3.6-.4.9-.1.4-.2.7-.3,1.1-.2.5-.5.9-.7,1.4,0,.3-.1.7-.2,1-.3.5-.5,1.1-.8,1.6-.2.6-.4,1.2-.6,1.8-.1.2-.3.5-.4.7-.2.7-.3,1.8,0,2.5,0,.2.2.3.3.4v.3c0,0,.2.2.3.3.2.6.3,1.2.5,1.8,0,0,0,.2-.1.2h0c.1.1.2.2.3.2.1-.2.2-.2.5-.2.2-.3.4-.3.6-.5,0,0,0,.2,0,.3h.5c.1,0,.5-.9.6-1,.2.1.5.4.7.6.3-.2.7,0,1,0,.2-.2.2-.5.7-.5,0,0,0-.1-.1-.2,0,0,.2,0,.3,0,.5-.4,1-1.5,1.5-1.7,0,0,0,0,0,0,0,0,0,0,0,0,0,0-.2.1-.3.2h0c0,.1,0,.1,0,.1,0-.1.1,0,.3-.2.3-.3.6-.6.9-.9,0,0,0,0,0,0-.3.1-.4.4-.7.5h0c0,0,0-.1,0-.2.2-.1.3-.2.6-.2h0c0,0-.1-.1-.2-.2h.3c.3-.3.6-.6.9-.9,0-.1,0-.2,0-.3h.2c0-.2,0-.3.1-.4.1-.2.3-.1.4-.4l.2.2c0,.2-.2.2-.3.3,0,0,0,0,0,.1.6-.2,1.2-.9,1.5-1.4,0,0,0,0,0,0-.4.2-.5.5-.9.6,0-.1-.2-.2-.2-.4.4-.4.9-.7,1.3-1.1.2,0,.3,0,.4.1.3,0,.4-.2.4-.5.2-.2.5-.3.7-.5,0,0,0,0,.1.1.2-.2,0-.2.2-.4.1,0,.2-.2.3-.3.4-.3.6-.7.9-1,.2-.2.7-.4.6-.8,0,0,.2-.2.3-.3,0,1.5-.1,3.1.1,4.5v1.3c0,.2.2.4.3.6,0,.4.1.8.2,1.1.1.3.7.8,1,.9.3.1,1-.1,1.2.2.1-.1.2-.2.3-.3,0,0,0,.1,0,.2.5,0,.9-.1,1.2-.3,0,.2.2.4.4.5h.9c.1-.1.2-.4.3-.4.4-.2.9-.1,1.3-.3.2,0,.7-1.2.8-1.5.1,0,.3-.1.4-.2,0,0,0,0,0,0,.1-.2.2-.5.4-.7.2-.2.3-.4.5-.6,0-.3.2-.5.2-.8.1,0,.2-.1.3-.2.2-.4.5-1.3.9-1.5,0-.1,0-.3,0-.4l-.3-.2c0,.2,0,.4-.3.5h0c0,0,0,0,0,0,0-.2.3-.6.2-.7,0,0,0,0,.1,0,0-.1,0-.1,0-.3,0,0,.1,0,.2,0,0,0,0-.1,0-.2,0,0,0,0,0,0-.4.5-.5,1.2-.8,1.8-.1,0-.2.2-.3.3-.1.2-.2.7-.5.7,0,0,0,0,0,0,0-.2.2-.3.3-.4.1-.2.2-.5.3-.7.4-.6.7-1.2,1.2-1.8.2-.3.3-.8.6-1l.2-.2h0c0,.3,0,.4,0,.8-.2.1-.3.1-.4.3,0,0,0,.1,0,.2.1,0,.3,0,.4,0,0,0,0,0,0,0,0,.3-.4.5-.4.9.1.1.2.2.3.4,0,0,.2,0,.2,0,0-.3.2-.6.4-.7,0-.2,0-.3-.2-.3,0,.1-.1.2-.3.3,0,0,0,0,0,0,.3-.5.8-.3.7-1,0-.1.2-.2.2-.3.1,0,.2,0,.3,0h0c0,0,0,0-.1-.1,0-.4.2-.4.4-.6,0-.2,0-.5.1-.7,0-.1.1,0,.2-.3h.1c0,0,0-.2,0-.2,0,0,0,0,0,0,0,0,0,0,0,.1-.2,0-.2,0-.2-.2,0,0,.1-.2.2-.2h0l.2.2s0,0,0,0c.1-.2.3-.4.4-.6,0,0,0-.2-.1-.3,0-.3.3-.4.4-.6v-.2c-.1,0-.2,0-.3,0h0c0-.2-.2-.3-.2-.6,0,0,.1-.2.2-.2,0,0,0,0,0,0,0,.4-.2.6.2.5,0-.2,0-.3.1-.4.2,0,.3,0,.3.2,0,0,0,0,.1,0,0,0,0,0,0,0,0,.3-.2.2-.3.3-.2.3,0,.5-.4.6v.3c.3,0,.9-1,.9-1.4.4,0,.3-.3.4-.6,0,0,.2-.1.3-.2,0-.1,0-.2.1-.3,0-.2.3-.3.4-.4,0,0,0-.2,0-.3,0,0,.2-.2.3-.3,0-.2.1-.3.2-.5l.3-.2c.3-.2.4-.6.5-.9.1,0,.1,0,.2.1.3,0,1.2-1.3,1.2-1.7,0,0,0,0,0,0,0-.1.6-.9.7-1,0,0,0,0,0,0,0,0-.2-.2-.2-.3,0-.2.2,0,.3-.2.4-.4.2-1,.9-1.3,0-.3.2-.7.4-.8,0,0,.2,0,.3-.2.1-.3.2-.5.3-.8,0,0,.2,0,.2-.1,0-.1,0-.2,0-.3,0-.4.6-.6.8-.9,0-.1,0-.2,0-.3.1,0,.2-.2.3-.3.2-.3.4-.7.6-1,.5-.8,1.1-1.6,1.6-2.4.1-.3.2-.6.4-.9.2,0,.3-.1.5-.2.2-.1.5-.9.6-1.2,0,0,0,0-.1,0,0-.2.3-.4.4-.6,0-.1,0-.2,0-.3.2-.3.6-.4.7-.8h0c-.3,0-.4.3-.7.5.1-.2.3-.7.4-.9.2,0,.3-.2.5-.2.1,0,.5-.9.5-1.1h0c0-.2.7-1.3,1-1.4,0,0,0-.1,0-.2h0c-.7.1-1,1.4-1.7,1.7ZM285.3,235s0,0,0,0h0s0,0,0,0ZM285.6,234.8s0,0,0,0c0,0,0,0-.1-.1h0c.1-.1.3-.1.4-.3h0s0,0,0,0c-.1,0-.2.1-.3.3ZM286,234.1s0,0,0,0c0,0,0,0,0,0,0,0,0,0,0,0,0,0,0,0,.1,0h0ZM286.3,233.8s0,0,0,0h0c0,0,0,0,0,0ZM286.6,233.5c0,0,0,0,0,0h0s0,0,0,0ZM286.9,233.3h0c0-.1.1-.1.2,0,0,0,0,0-.1,0ZM288.2,231.9h-.1s0,0,0,0c0,0,0,0,.1-.1.1,0,0,0,0,.2ZM288.5,231.4s0,0,0,0c-.1,0,0,0-.1,0h.2ZM288.8,231.1s0,0,0,0c0,0,0,0,.1,0h0s0,0,0,0c0,0,0,0-.1,0ZM289.1,230.6s0,0,0,0c0,0,0,0,0,0h.1s0,0,0,0ZM289.3,223.8h0c0,0,0,0,0,0h0ZM289.5,230.5h0c0,0,0-.1,0-.2,0,0,.1,0,.2,0-.1,0,0,0-.1.1ZM289.6,229.9c0,0,0-.1,0-.2,0,0,0,0,0,0,0,0,0,0,0,0,0,0-.2,0-.3.1ZM289.7,221.9c0,.2,0,.4-.1.6,0,0,0,0-.2,0v-.4c0,0,.1,0,.2,0,0-.1-.1-.2,0-.4h.1v-.4s0,0,.1,0c.1,0,.1.1.2.3,0,.2-.1.2-.2.3ZM290.1,220.3c0,0-.2,0-.2-.1,0,0,0,0,.2,0,0-.2,0-.3.1-.5.2,0,.3.2.3.4,0,.1-.2.2-.3.3ZM290.9,217.8c0,0-.2,0-.2,0,0-.1,0-.2,0-.3h.3s0,0,0,0c0,.1,0,.2-.1.3ZM291.3,228.4s0,0,0,0c0,0,.2,0,.3,0,0,0,0,0-.2,0ZM291.8,227.7s0,0,0,0c0,0-.1,0-.2-.1h0c0-.1.2-.2.3-.2,0,0,0,0,0,.1,0,0,0,.1,0,.2ZM292.2,228s0,0,0,0c0,0,0,0,0,0h0ZM294,225.9h0c0,.3-.2.2-.3.3l-.4.6c-.3.3-.5.4-.7.8h0c0,0,0-.1-.1-.2h0c.2-.3.5-.3.7-.5.1,0,0-.3.2-.4,0,0,.6-.5.6-.5,0-.1,0,0,0-.1.3-.3.7-.7,1-1,.1-.2.1-.4.2-.6.2,0,.3,0,.5,0,0,.3-1.3,1.5-1.5,1.6ZM305.2,228.1s0,0,0,0h0c0,0,0,0,0,0ZM302.1,232.3c0,0,0,0-.1.2,0,0,0,0,0-.2,0,0,.1,0,.2,0ZM301.8,216.5s0,0,.1,0v.5c-.2,0-.1-.4-.1-.6ZM301.4,219.5h0c0,0,0,0,0,0,0,0,0-.1,0-.2,0,0,0,0,0,.1ZM301.4,220.8s0,0,0,0c0-.3,0-.4.1-.6.1.2,0,.4,0,.6ZM301.8,218.9c0,0-.2.1-.3.2,0-.3,0-.5,0-.7,0,0,0,0,.1,0,.1,0,.1.3,0,.5ZM302.1,233.1c-.2,0-.3,0-.2-.2,0,0,.2.1.2.2h0ZM302.3,232.8s0,0,0,0h0c0-.2,0-.5,0-.7,0,0,.1.2.2.3,0,.1-.1.2-.2.3ZM302.6,232.2s0,0,0-.1c0,0,0,0,0,0,0,0,0,0,0,0ZM303.5,231.3c0,0-.2,0-.3,0,0-.1,0-.2,0-.3h.3v.3ZM303.9,231.5s0,0-.1,0c0,0,0-.3.1-.4h.1s0,0,0,0c0,0,0,0,0,.1,0,0-.2,0-.2.2ZM304.3,229.1s0,0,0,0c0,.5-.4.7-.6,1.1,0,0,0,0,0,0,0,0,0,0,0-.1h0s-.6.8-.6.8c0,.2,0,.3,0,.5,0,.1-.1.2-.2.3,0,0-.1,0-.2,0h0c.2-.3.2-.5.1-.9.5-.6,1-1.1,1.4-1.7,0,0,0,0,0,0ZM307,224.6s0,0-.1,0c0,0,0,0,0,0,0,0,.1,0,.2,0h0ZM307.3,225.4c0,0-.1.1-.2.2-.2-.3.3-.8.6-.9v-.3s0,0,.1,0c.1,0,.1,0,.1.1-.2.4-.5.6-.7,1ZM307.5,223.5s0,0,0,0h0s0,0,0,0c0,0,0,0,0,0ZM307.7,223.8s0,0,0,0h0s0,0,0,0ZM308.1,223.5s0,0,0,0c0,0,0,0,0-.1h0ZM307.8,222.7c0,.2,0,.3-.1.5,0,0-.2,0-.3.1h0c0-.2.1-.5.2-.7.3-.1.4-.4.6-.6h.1c0,.4-.3.5-.5.7ZM308.8,222.6s0,0,0,0h0,0ZM309.5,220.5s0,0,0,0h0c0,0,0,0,0,0,0,0,0,0,0,0ZM309.7,220.3h0c0,0,0,0,0,0,0,0,0,0,0,0ZM312,211.9c0,0,0-.2,0-.3.2,0,.4-.3.5-.4h0c-.1.3-.4.5-.4.9,0,0-.1,0-.2,0,0,0,0,0,0-.1,0-.1,0,0,0-.1ZM311.6,211.9s0,0,0,0c0,0,0,0,0,0,0,0,0,0,0,0h0ZM311.4,212.9c.1-.1.3-.3.4-.4,0,0,0,0,0,0,0,.4-.4.5-.5.9,0,0-.1,0-.2,0,0-.2.1-.4.2-.5ZM310.8,213.7h0s0,0,0,0h0c0,0,0,0-.1,0h0ZM310.7,218.1s0,0,0,0c0,0,0,0,0,0h0ZM310.1,218.8s0,0,0,0c0,0,0,0,0,0,0,0,0,0,0,0h0ZM310.1,214.4c0,0,0,0,0,.1,0,0,0,0,0-.1ZM311.2,218.6c-.3.5-.8,1-.8,1.7,0,0-.1,0-.3,0,0-.2,0-.4-.1-.5.2-.1.2-.4.3-.7,0,0,.4-.5.4-.6,0,0,.2,0,.2,0,.2-.3.2-.7.5-.9h0c0,.2,0,.3.2.4,0,.4-.3.4-.5.6ZM311.6,218.7h0c0,0,0-.1,0-.2.4-.4.5-.5.7-1,0,0,0,0,0-.1,0-.2.2-.5.3-.7h0c0,.3-.1.4-.2.6h0c0,0,.2-.1.2-.2h0s0,0,0,0c-.3.5-.9,1.1-1.1,1.5ZM312.9,210.1s0,0,0,0c0,0,0,0,0,0h0ZM313.1,217.4c0,0,0,0,0,0,0,0,0,0,0,0h0ZM313.2,209.8s0,0,0,0h0s0,0,0,0ZM313.3,210.5s0,0,0,0c0,0,0-.1,0-.2,0,0,0,0,0,.1ZM313.5,215.4h0s0,0,0,0c0-.2,0-.2.1-.3h0c0,.2,0,.3-.1.3ZM313.9,214.6h-.3c0,0,0-.1.1-.2h.1s0,0,.1.1c0,0,0,0,0,0ZM313.6,209.9h0c0,0,0-.1,0-.2v.2h0ZM313.5,209.8h0s0,0,0,0c0-.4.3-.4.4-.7,0,.2-.3.6-.4.7ZM314,209.3h0s0,0,0,0c0,0,0,0,0,0h0ZM314.7,212.1s0,0,0,0c0,0,0,0,0,0h0s0,0,0,0ZM314.9,212s0,0,0,0h0s0,0,0-.1h0s0,0,0,0ZM315.6,206.8c-.4.7-.8,1.4-1.2,2.1h-.1s0,0,0,0c.2-.4,1.5-2.5,1.8-2.7h0c.1,0-.2.5-.3.6ZM316.2,209.8h0c0,0,0,0,0,0,0,0,0,0,0,0Z"/>
      <path class="st0" d="M259.8,216.5c0,0,0,0,0,0h0Z"/>
      <path class="st0" d="M289.7,223s0,0,0,0c0,0,0,0,0,0h0Z"/>
      <path class="st0" d="M260,229.4c0,0,0,0,0,.1,0,0,0,0,0,0,0,0,0,0,0,0Z"/>
      <path class="st0" d="M281.6,216.2c-.4.2-.8.3-1.3.5-1.7.9-3.1,2.1-4.6,3.2-.1-.5-.2-.9-.3-1.4-.1,0-.2,0-.3-.1h0c0,.1,0,.1,0,.1-.2-.2-.2-.5-.3-.7h0c0,0,0,.3,0,.5,0,0,0,0,0,0,0,0,0-.2-.1-.3-.2,0-.2,0-.3.1-.2,0-.6,0-.8.2-.6.7.4,2.2.4,3-.3.4-.7.6-1.1.9-.1.2-.2.3-.3.5-.9.7-2,1.7-2.1,3.2.1,0,.2-.2.3-.3h0c-.1.2-.2.4-.4.6,0,0,0,0,0,.1,0,0,0,0,0,0,0,0,0-.2.2-.3.4-.3.8-.4,1.1-.8h0c0,.1-.2.3-.3.5h0c.2,0,.4-.3.6-.3,0,0,.1.1.2.2,0,.1,0,.1-.1.2,0,0,0,.2,0,.3,0,0,0,0,.2,0h0c.2-.2.5-.5.5-.6,0,0,0,0,.1,0,.7-.5,1.1-1.1,1.7-1.6.3.3.6,1,.8,1.4.4.8,1.2,2.2,1.8,2.7.1,0,.3.1.4.2.2.2.3.4.6.5-.2-.4-.5-.7-.7-1.2,0-.2,0-.3,0-.4,0-.2-.3-.6-.4-.8h0c.1.3.4.9.8,1,0-.3-.3-.7-.4-.9,0-.3-.1-.6-.2-.8,0,0,0,0,0,0,.3.4.6.8,1,1.1h0s0,0,0-.1c0-.1-.2-.2-.2-.3,0,0,0,0,0,0,0-.2-.3-.8-.5-.9,0-.2,0-.2,0-.5,0,0-.1,0-.2,0-.1-.3-.2-.6-.3-.9,0,0-.2,0-.2-.1,0,0,0-.5,0-.6,0,0-.1,0-.2,0-.1-.1,0-.2,0-.3-.2-.4-.4-.6,0-1,0-.1.1,0,.2,0l.6-.4c0,0,0-.1,0-.2.2-.1.4-.2.6-.3,0,0,.2-.3.3-.4.1,0,.3-.2.4-.2.2-.3.3-.7.6-.9.4-.3.9-.6,1-1,0,0-.1,0-.2,0,.2-.1.4-.3.6-.4,0,0,0,0,0,0h0c-.2,0-.2,0-.4.2,0,0,0,0,0,0,0,0,0,0,0,0,.2-.1.3-.2.5-.3v-.2c0-.1.2-.2.4-.3h0c-.3,0-.5.2-.9.2h0c.4-.5,1.1-1,1.6-1.4.3-.2.5-.3.7-.6-.5.2-.9.5-1.4.6ZM280.5,217.7s0,0,0,0h0s0,0,0,0Z"/>
      <path class="st0" d="M278.3,226.3h0s0,0,0,0c0,0,0,0,0,0Z"/>
      <path class="st0" d="M312.2,195.2s0,0,.1.1c-.2-.5-.6-.9-.9-1.3,0,0,0,0,0,0-.2-.2-.5-.4-.7-.7h0c0-.1.8.6.8.6h0c0,0,0,0,0,0,0-.4-1.3-1.6-1.6-1.9-1.2-1.2-2.4-2.2-3.8-3.2-.7-.5-1.3-1.3-2.3-1.6,0,0,0,0,0-.1.1,0,.3.1.4.2,0,0-.1-.1-.2-.2h0c.3.2.7.3,1,.5h0c-.1-.3-1.2-.7-1.6-.8-.4-.7-1.3-.8-1.8-1.3,0,0,0,0,0,0,.1,0,.2,0,.3,0,0,0,0,0-.1,0h.2s0,0,0,0c-.8-.2-1.6-.7-2.3-1.1-.9-.4-1.8-.8-2.8-1.2-3.6-1.4-7.9-1.8-12.8-1.7-.5,0-1,0-1.6.1l-3.2.4c-2.8.6-5.3,1.3-7.5,2.4-.5.2-1.1.5-1.6.7,0,0,0,0,0,0,.1,0,.2,0,.3,0-.3.4-.9.5-1.4.8-.2.1-.3.2-.5.3,0,0,0,.2-.1.3-.2,0-.3,0-.5.1-.3.2-.7.3-1,.5,0,0,0,0,0,.1.3-.2.7-.3,1-.5,0,.1-.1.1-.2.2.1,0,.3-.1.4-.2,0,0,0,0,0,0h0c-2.3,1.2-4,2.9-5.9,4.5-.5.4-1.7,1.6-1.9,2.1h0s0,0,0,0c.3-.2.5-.5.8-.7,0,0,0,0,0,0h0c0,.4-.5.7-.7.8,0,0,0,0,0,0-.3.4-.7.8-.9,1.3.4-.5.8-1,1.2-1.5h0s0,0,0,0c0,0,0,0,0,0l-.5.6c.3-.1.8-.8,1-1.1.2-.3.4-.4.7-.6.4-.4.8-.8,1.2-1.2,2-1.8,4.4-3.2,6.9-4.5.7-.4,2.2-1.3,3-1.3h0c-.7.2-1.3.6-1.9.9-.7.4-1.4.7-2.1,1.1-.4.3-.8.6-1.2.8-.2.1-.4.2-.6.4h0c.3,0,.8-.5,1.1-.6.3-.1.5-.2.8-.3.5-.2.9-.6,1.5-.7,0,0,0,0,0,0,.1-.1.8-.4,1-.4h0c-.3.1-1.2.6-1.3.8.3-.2.6-.3,1-.5h0s-1.4.8-1.4.8c0,0,0,0,0,0,.1,0,.3,0,.4-.1-.4.2-.8.5-1.2.7-.2.2-.3.4-.6.5,0,0,0,0,0,0,.2-.1.5-.3.7-.4.6-.3,1.1-.6,1.7-.8.4-.2.8-.2,1.1-.5h0c0,0-.1,0-.2,0,.1-.1.3-.2.4-.2,0,0-.1,0-.2.1,0,0,0,0,0,0,.5-.1.9-.4,1.4-.6,2.5-.9,5.1-2,8.5-1.9h0c-.1,0-.2,0-.4,0,.3.2,2.3-.3,2.4,0,.2,0,.2,0,.2,0,.2,0,.5,0,.7,0,0,0,0,0,0,.1-.2,0-.3,0-.5,0,.2,0,.5.1.7.2,0,0,0,0,0,0,0,0,0,0-.1,0h0s0,0,0,0c.3,0,.8,0,1.1,0,0,0,0,0-.1,0,0,0,0,0,0,0,.3,0,.5,0,.8,0h-.5s0,0,0,0c.3,0,.5,0,.8,0,0,0,0,0,0,0,.8,0,1.8,0,2.7.1h0c-.1,0-.2,0-.3,0,.5-.2,2.5.2,2.9.3,1.5.4,2.8.6,4,1.2.5.2,1.1.4,1.7.7.3.1.6.4,1,.5,0,0,0,0-.1-.1h0s0,0,0,0c.1,0,.3.1.4.2,0,0-.2,0-.3,0,.3.2.6.2.9.4.9.5,1.9,1.1,2.7,1.5-.1-.2-.4-.3-.6-.4-.4-.3-.9-.6-1.2-.9h0c.2,0,.3,0,.5.1h0c-.4-.2-1.1-.5-1.5-.8h0c.3.1.7.3,1,.5-.3-.4-.9-.5-1.3-.9h0c.2,0,.4.2.6.3,0,0,0,0,0,0,0,0,.3,0,.4.2,0,0,0,0,0,0,.9.4,1.4.6,2.3,1,.4.2.7.6,1.1.7-.2-.3-1.3-.9-1.7-1.1-1.3-.8-2.7-1.6-4.1-2.1h0c1.3.3,2.6,1.1,3.7,1.8,1.8,1,3.5,2.1,5.1,3.3l1.7,1.5c.2.2.4.4.6.6.6.3,1.3,1.1,1.7,1.7,0,0,0,0,0,0,0-.3-.4-.4-.4-.7.3,0,1.1,1.2,1.2,1.5Z"/>
      <path class="st0" d="M277.4,186s0,0,0,0c.1,0,.3,0,.4-.1-.1,0-.3,0-.4,0ZM277.8,185.9s0,0,0,0h0s0,0,0,0ZM293.7,186.1h0c0,0,.2,0,.3,0h0c0,0-.1-.1-.2-.1,0,0,.1,0,.2,0-.4-.2-1-.1-1.5-.3-1.5-.5-3.4-.4-5.1-.8-.6,0-1.2,0-1.8,0-.4,0-.9,0-1.3,0-1,0-2,.2-3.1.2-.6.1-1.2.1-1.8.3-.4,0-1,.3-1.5.4-.2.2-.7.3-.9.3.3.2.9-.1,1.2-.2.9-.2,1.7-.3,2.7-.5.4,0,.7,0,1.1-.1.2,0,.9,0,1.3,0,.8,0,1.7,0,2.7,0h1c.4,0,.9,0,1.2,0,1.1.2,2,.1,3,.3.3,0,.5.1.8.2.4,0,.7,0,1.1.1.5.2,1.3.5,1.9.5h0c-.4-.1-.7-.2-1.1-.3Z"/>
      <path class="st0" d="M270.4,185.2s0,0,0,0h0s0,0,0,0Z"/>
      <path class="st0" d="M277.9,186c0,0-.1,0-.2,0h0s.3,0,.3,0c0,0,0,0,0,0Z"/>
      <path class="st0" d="M294,186c0,0,.2.1.3.1,0,0-.2-.1-.3-.1Z"/>
      <path class="st0" d="M314.3,232.5s0,0,0,0c0-.3.2-.8.5-.9,0,0,0,0,0-.1.1-.2.5-1.3.5-1.4-.2.6-.6,1.2-.7,1.8,0,0,0,0,0,0-.2-.2.2-.6.2-.8-.4.3-.5,1-.7,1.4-.2.3-.4.5-.6.7-.3.5-.6,1-.9,1.5-1.5,2.3-3.6,4.6-5.7,6.3-.7.5-1.5,1.6-2.3,1.8.4-.3.9-.7,1.3-1,1.2-1.1,2.5-2.2,3.5-3.5h0c-.4.2-.6.7-.9.9-.2.2-.5.3-.7.5-.1,0-.1.2-.3.3,0,0,0,0,0,0-.2.2-.4.5-.8.7,0,0,0,0,0,.1-.1.1-.2.2-.4.3,0,0,0,0,0,0-.2.1-.4.3-.5.4.3-.5.8-.7,1.1-1.2-.3.2-.6.5-.8.7.2-.5.9-.7,1.2-1.2-.1,0-.3.2-.4.3.5-.6,1-1.1,1.5-1.7h0c-.3.3-.5.5-.8.8-.5.4-1,.9-1.5,1.3-.3.2-.5.3-.7.6l.3-.2c0,.1-.2.2-.3.3,0,0,0,0,0-.1-.4.2-.7.6-1.1.9-1.5,1-2.9,2.1-4.5,2.9l-.8.3c-.6.3-1.5.8-2.3.8,0,0,.2,0,.3-.1,0,0,0,0,0,0h0c-.4.1-.7.3-1.1.4l-.8.2c-.1,0-.2.1-.3.2h-.3c0,0,0,0,0,0-.2,0-.5.1-.7.2h0c.1-.1.3-.2.4-.2-.2,0-.5,0-.7,0h0c0,0,0,0,.2,0h0c-.1.2-.8.4-1,.3h0s0,0,0,0h0c-.2,0-.4,0-.7.2h0c.2,0,.3,0,.5-.1h0c-.2.2-.5.2-.7.3,0,0,0,0,0,0-.2,0-.2.1-.3.2h-.4c-.6,0-1.2.4-1.9.4,0,0,0,0,0,0,.1,0,.3,0,.4,0-.3.3-1.4.3-1.9.4-1.6.3-4.2.2-5.9,0-.4,0-.7,0-1.1,0-.4,0-.7-.2-1.1-.2,0,0,.2,0,.2,0-.1,0-.3,0-.4,0,0,0,0,0,0,0h.2c-.3-.2-.7,0-1.1-.2-.7-.1-1.3-.3-2-.4-.3,0-.5-.2-.8-.3.2.3,1.7.6,2.1.8-.1,0-.3,0-.4,0h0c.5.2,1.1.3,1.6.4-.3.1-.8-.1-1.1-.2.5.2,1,.3,1.5.5-.2,0-.4,0-.6,0-.2,0-.9-.2-1.1-.2-.5-.1-.8-.2-1.3-.3-.2,0-.3,0-.5,0-.4-.1-.8-.4-1.2-.4.2.2.7.2,1,.3,1.1.5,2.5.7,3.8,1l1.1.2h0c-1,0-2.1-.3-3-.5-2.3-.5-4.4-1.1-6.3-2-.6-.3-1.3-.6-1.9-1l-.6-.4c-.2,0-.3,0-.4,0-.6-.3-1.1-.7-1.7-1.1,0,0,.4.4.6.5h0c-.7,0-1.1-.8-1.7-1,.2.3.8.8,1.2,1,0,0,0,0,0,.1h0c.3,0,.7.3.9.6h0c-.4-.2-.7-.3-1.1-.5.1.4,1.6,1.2,2,1.4,1.6,1,3.5,1.8,5.4,2.5.6.3,1.2.3,1.8.5,0,0,0,0,0,0-.2,0-.3,0-.5-.1,0,0,.2.1.2.2-.4,0-.7-.2-1.1-.3.2.3,1.3.3,1.8.3,0,0,0,0,0,.1.3.2,1.7.5,2.1.6,0,0-.2,0-.3,0,0,0,0,0,.1,0h-.1c.6.1,1.2.2,1.9.3,2.3.6,5.3.5,8.1.4,2.3,0,4.5-.7,6.4-1.2l1.8-.4c.8-.3,1.7-.6,2.5-1,4-1.6,7.1-3.7,10-6.3h0s0,0-.1,0c0,0,0,0,0-.1-.1,0-.2.1-.3.2.3-.7,1.3-1,1.5-1.8.5-.3,1.1-.7,1.4-1.2-.3.3-.6.5-.9.8h0l.2-.3c-.1.1-.3.2-.4.3,0-.2,1.1-1.2,1.3-1.5,1.2-1.6,2.4-3.2,3.4-5,.3-.6.9-1.3,1-2.1h0s0,0,0,0c-.2.3-.4.6-.6,1ZM279.9,249.1c.2,0,.4,0,.6,0-.1,0-.5,0-.6,0ZM293.7,246.7s0,0,0,0c0,0,0,0,0,0h0ZM278.1,248.5s0,0,0,0c0,0,0,0,0,0h0Z"/>
      <path class="st0" d="M300.8,243.1s0,0,0,0c0,0,0,0,0,0h0ZM300.8,243.1h0s0,0,0,0ZM301.2,242.7c-.1,0-.3,0-.4.1-.1.1-.2.2-.4.3-.3.2-.7.3-1,.6-.3.1-.6.2-.9.4-.5.3-1.1.7-1.7.8,0,0-.2,0-.2,0,0,0-.2.2-.3.3-.3,0-.6.2-.9.3-.1,0-.3.1-.4.2-1.6.6-3.6,1-5.4,1.3-.2,0-.4,0-.5,0-1.4.5-3.5.3-5,.5.1.1,1,0,1.1,0,0,0-.1,0-.2,0,0,0,0,0,.1,0-.1,0-.3,0-.5,0,.3.2,1,0,1.4,0,.4,0,.6.1.9,0,.6-.1,1.3-.1,1.9-.2.9-.2,1.9-.3,2.8-.5l1.4-.5c.5,0,1-.2,1.4-.3,1-.4,2.1-.8,3.1-1.1.5-.2,1.1-.6,1.6-.8,0,0,0,0,0,0,.4-.4,1.2-.4,1.6-.9-.1,0-.2.1-.4.2.2-.2.7-.4.8-.6Z"/>
      <path class="st0" d="M300.3,243.3c.1,0,.2,0,.2-.1,0,0-.1,0-.2.1Z"/>
      <path class="st0" d="M318.7,199.2c-.2-.5-.6-.9-.7-1.5,0-.2-.3-.2-.3-.3-.1-.3-.2-.6-.4-.9h0c.1.2.2.4.3.6,0,0,0,0,0,0-.3-.5-.6-1-.9-1.5-.1-.1-.3-.2-.3-.4,0,0,0,0,0,0-1.1-1.7-2.4-3.3-3.7-4.8-.6-.8-1.4-1.3-2-2.1.2.2.4.3.6.5-.5-.7-1.4-1.2-2.1-1.8l-1-.9c-.9-.7-1.9-1.4-2.8-2.2-.2-.1-.5-.2-.7-.4-.5-.3-.9-.6-1.5-.9-.6-.3-1.3-.8-2-1h.2c-.1-.2-2.6-1.3-2.9-1.3,0,0,0,0,.1,0h0c-1.1-.4-2.1-.9-3.2-1.2,0,0,0,0,0,0-1.8-.7-3.9-.9-6.1-1.3-1-.2-1.9,0-2.8-.1,0,0,0,0,.1,0-.9,0-1.7,0-2.6,0-1,0-2,.1-3,.2-1.9.3-3.8.5-5.5,1-2.1.6-4.2,1.3-6,2.1-.9.4-1.9.9-2.8,1.3-.4.2-.6.5-1,.6h0c-.6,0-1.1.6-1.6.9-.9.6-1.7,1.2-2.6,1.8-.4.3-.7.6-1.1.9,0,0,0,0,.1,0-.1.3-.5.4-.7.6-.3.2-.5.5-.8.7-.8.7-1.4,1.5-2.1,2.2-.5.6-1.1,1.1-1.7,1.8-1.9,2.5-3.7,5.2-5.1,8.2-.7,1.4-1.1,2.9-1.8,4.4h0s0,0,0,0h0s0,0,0,0c0,.4-.2.5-.3.8-.3,1.2-.6,2.3-.9,3.5-.1.5,0,.9-.2,1.4-.4,2.1-.4,4.2-.4,6.7,0,0,0,0,0,0,0,0,0-.1,0-.2l.3,3.3s0,0,0,0v-.3c.1.2,0,1.1.1,1.5.2.9.3,1.5.4,2.4,0,.3,0,.7.1,1,.5,1.1.7,2.5,1.2,3.7.2.5.4,1.1.6,1.5.1.2,0,.5.2.7.2.4.4.8.6,1.3,0,0,0,0,0,0,0-.3-.2-.5-.3-.8.2.3.3.6.5.9v.3c.1.1.2.2.3.4.2.3.3.6.5,1,.4.8,1.2,1.7,1.5,2.5,0,0,0,0,.1,0,.1-.7-.7-1.1-.8-1.7,0,0,0,0,0,0,0,0,0,.1.1.2h0c0-.1-.1-.3-.2-.4.2.3.4.6.5.9,0,0,0,0,0,0,0-.2-.2-.3-.3-.5.2.1.3.4.4.6,0,0,0,0,0,0,0-.4-.3-.6-.4-.9-.3-.5-.4-1.1-.7-1.6-.1-.3-.4-.5-.4-1h0c0,.1,0,.2.1.3h0s0,0,0,0c-.2-1.2-.7-2.2-1-3.4-.1-.5-.4-.9-.5-1.5.2.2.3.6.3.9h0c0-.2,0-.4-.1-.6h0c.3,0,.3.8.5,1h0s0,0,0,0c-.2-1-.6-2-.8-2.9-.3-1.7-.6-3.6-.7-5.6h0v.2h.1c-.4-1.6,0-3.4,0-5.2h0c.1.4,0,1.1,0,1.6.2-.5,0-1.2,0-1.8.1-1,.2-2.1.3-3.1h0c0,.1,0,.2,0,.3,0-.2,0-.4,0-.6,0-.4.1-.8.2-1.2.3-1.5.6-3.1,1.1-4.5.5-1.3.9-2.6,1.5-3.8.5-.9.9-1.8,1.4-2.7,0,0,0,0,0,0,0,0,0,.1,0,.2.3-.3.5-.9.7-1.2.4-.5.8-1.1,1.2-1.6-.1.2-.2.3-.2.4h0c-1.6,2.1-3.1,5.2-4.2,7.9,0,.2,0,.4-.1.6-.2.6-.5,1.3-.7,1.8,0,.3-.1.6-.2.9-.3,1-.4,1.9-.6,2.9-.2.7-.2,1.5-.3,2.3,0,.3,0,.5,0,.8-.1.6-.2,1.3,0,1.8,0,.8,0,1.6,0,2.4,0,.9.1,1.9.2,2.8.2.9.3,1.8.5,2.7-.1-1-.3-2-.4-3.1-.4-2.2-.2-5,0-7.3,0,0,0,0,0,0,0-.4,0-.8,0-1.2,0-.4.1-.7.2-1.1.2-1,.6-2,.6-3.1,0,0,0,0,0,.1,0-.2,0-.3,0-.5,0-.3.2-.5.2-.8.6-1.9,1.3-3.8,2.2-5.5,2.6-5,6.2-9,10.6-12.1,1.4-1,2.9-2.2,4.4-2.9.2-.2.5-.3.7-.5.5-.3,1.1-.6,1.6-.9,2.3-1.1,4.7-1.8,7.4-2.4.7-.2,1.4-.3,2.1-.5-.3-.1-1.1.1-1.4.2-.5.1-1,.1-1.4.2-.4,0-.8.2-1.2.3.4,0,.8-.2,1.2-.3.4,0,1-.3,1.5-.3h0s0,0-.1,0c0,0,0,0,0,0,.8,0,1.6-.2,2.3-.3,1.8-.3,4.5-.4,6.4,0,.7.1,1.4,0,2.1.3.2,0,.4,0,.6,0,.6.1,1.4.2,2,.3.8.1,1.6.5,2.4.6.3,0,.5,0,.8,0l2.6.8c2.8,1.1,5.4,2.4,7.7,4,1.1.8,2.1,1.8,3.1,2.7,1.5,1.2,2.8,2.8,3.9,4.4l1.3,1.6s0,0,.1,0c-.2-.4-.5-.7-.8-1.1.2,0,.4.4.6.5-.2-.3-.4-.6-.5-.8.4.3.6.8,1,1.3.2.2.3.3.5.5.2.3.4.6.6.9,0,0,.2.1.3.2.3.4.5.8.9,1.2,0,0,0-.2-.1-.3h0c.3,0,.4.4.6.6h0c.5.8,1.1,1.7,1.5,2.6,0,0,0,0,0,0h0c-.1-.3-.2-.5-.3-.8,0,.2.2.3.2.5,0,0,0,0,0,0h0c-.1-.3-.3-.7-.4-1h0c0,.1,0,.2.1.3,0,0,0,0,0,0,0,0,0-.2,0-.2,0,0,0,0,0,0,0,0,0,0,0,0,.1.4.6,1.5.9,1.7,0-.2-.2-.4-.3-.6h0c0-.1,0-.1,0-.1,0,.2.2.4.3.7h0c0,0,0,0,0,0-.3-.9-.7-1.7-1.1-2.6ZM247.2,214c0-.2,0-.4,0-.6,0,.1,0,.5,0,.6ZM253.4,235.5c-.2,0-.3-.4-.4-.6.2,0,.3.4.4.6ZM252.7,234.3c.1.1.2.2.2.4-.1,0-.2-.3-.3-.4,0,0,0,0,0,0ZM252.6,233.7c-.2-.1-.4-.4-.4-.7l.4.7ZM251.8,231h0c0-.1,0-.3-.1-.4,0,.1.1.3.2.4ZM250.4,230.5h0c-.1,0-.3-.4-.3-.6.2.1.2.4.3.6ZM257,195.4s0,0,0,0c0-.1.1-.2.2-.3,0,0,0,.1,0,.2ZM257.6,194.5c.2-.2.3-.4.5-.5,0,0-.4.5-.5.5ZM257.8,194.1c0,0-.2.3-.3.4h0v.2h-.1s0,0,0,0c0,.1-.1.2-.1.2,0,0-.1,0-.2,0,0,0,0,0,0,0,.1-.2.3-.4.5-.6.3-.4.6-.9,1-1.2h0s0,0,0,0c-.1.4-.5.6-.7.9ZM260.2,191.6c-.3.3-.7.9-1.1,1.1.4-.5.9-1,1.4-1.5-.1.1-.2.2-.3.4ZM260.9,190.9c.4-.5.9-.9,1.4-1.2,0,.2-1.2,1.1-1.4,1.2ZM266.9,186.3h0c.1,0,.2-.2.3-.2h0c-.2-.1-.7.5-.9.6-.7.5-1.4,1-2.1,1.5-.3.2-.7.3-.9.6.1,0,.2-.2.4-.2-.4.3-.8.6-1.3.9,0-.3,1.1-1,1.4-1.2.5-.4,1-.8,1.5-1.2.9-.6,1.9-1.1,2.8-1.7h0c0,.2-1.1.8-1.3.9ZM268.5,185.3c.3-.4,1.2-.6,1.6-.9,0,0-1.3.8-1.6.9ZM272.5,183.4l-1.9.8h0s.6-.4.6-.4l1.2-.5h0ZM274,182.8c.2-.1.5-.2.7-.3h.1c-.3.1-.6.2-.8.3ZM275.5,182.4h0s0,0,0,0c.1,0,.2,0,.3,0,.1,0-.2.1-.3.1ZM276.8,182c0,0,0,0-.2,0,0,0,0,0,0,0-.2,0-1.2.2-1.4.3l-.2.2c-.2,0-.4,0-.6,0l-1.3.5h0c.3-.3,1.3-.5,1.8-.6.6-.2,1.2-.3,1.8-.5,0,0,0,0,0,0ZM296.1,179.5c.2,0,.3,0,.5,0-.1,0-.4,0-.5,0ZM310.4,187.8c.2,0,.5.4.6.6-.3,0-.5-.3-.6-.6ZM313.4,193.9c.1.1.2.3.3.4-.1,0-.2-.2-.3-.4ZM316.9,197.8h0c0-.1-.2-.3-.3-.4,0,.1.2.2.3.4h0ZM316.9,195.8c.2,0,.4.5.5.7-.2-.1-.4-.5-.5-.7ZM318.6,200.1h0l-.3-.8c.2.2.3.4.4.7h0ZM319,200.5c.1,0,.2.3.2.4-.1,0-.2-.3-.2-.4Z"/>
      <path class="st0" d="M267.2,249.5c.3.3.8.5,1.2.6-.4-.1-1-.5-1.2-.6ZM319.3,225.8c0,.2-.1.5-.2.7.1-.3.2-.6.2-.7h0ZM321.4,207s0,0,0,0c0,.1,0,.3.1.4,0-.1,0-.3,0-.4ZM321.5,207.3s0,0,0,.1h0c0,0,0,0,0-.1ZM321.7,207.5h0c0,0,0,0,0,0,0,0,0,0,0,0ZM323.2,217.6c.1-1.6,0-3.1,0-4.7,0,0,0,0,0,0,0-.4,0-.7,0-1.2,0-.3,0-.7-.1-1v.7c0-.3-.2-.6-.2-.9,0-.1,0-.3,0-.4,0-.1-.1-.3-.2-.4-.2-.9-.3-1.6-.5-2.4-.1-.5-.3-1-.4-1.5,0,0,0,0,0,0h0c-.1.6.3,1.2.3,1.9,0,0-.1-.1-.2-.2,0,.1,0,.3,0,.4,0,0-.2-.3-.2-.5h0c-.1,0-.2-.5-.3-.7-.1.2.1.8.2,1,.2.7.4,2.1.3,2.8,0,0,0,0,0,0,0,0,0-.2,0-.3-.2.6.1,1.1,0,1.7,0,.3,0,.9,0,1.3,0,.7,0,1.5,0,2.2-.1-.2-.1-.7,0-1h0c0,.2,0,.5,0,.7,0,0,0,0,0,0-.1-.3,0-1,0-1.3,0,.8,0,1.5,0,2.3,0,.3,0,.6,0,.9-.1.2,0,.7,0,1-.2,1.1-.4,2.4-.6,3.5,0,.3-.1.6-.2.9h0s0,0,0,0h0c0,.3,0,.6,0,.9-.1.6-.3,1.1-.4,1.7l-.9,2.4c0-.1,0-.4,0-.7-.2.5-.4,1-.6,1.5-.1.4-.2.7-.4,1.1-.4.9-.8,1.7-1.2,2.5-.3.5-.6,1.3-1.1,1.8.5-1.2,1.3-2.3,1.8-3.5,1-2.4,1.7-4.7,2.4-7.5.3-1,.7-3,.6-4.2-.1.9-.2,1.9-.4,2.8-.4,1.8-.8,3.6-1.3,5.2-.2.7-.4,1.6-.8,2.2,0,0,0,0,0,0-.1.4-.2.7-.4,1.1l-.8,1.5c-.5.9-1,1.8-1.6,2.7l-.8,1.2c0,0,0,0,0,.1-1.5,2.1-3.3,4-4.9,6-.1,0-.3.2-.4.3-.5.6-1.1,1.2-1.8,1.8-1.6,1.2-3.1,2.3-4.9,3.4-.9.5-1.7,1-2.7,1.5-.2.1-.4.3-.7.4,0,0,0,0,0,0,.9-.3,1.7-.8,2.5-1.1.4-.2.7-.4,1.1-.6,0,0,0,0,0,0,0,0,0,0,.1,0,0,0,0,0,0,0,.4-.3.8-.4,1.2-.7l.2-.3c.2,0,.3-.1.5-.2.4-.3.8-.7,1.2-.9-.3.4-.8.6-1.2.9-1,.7-2.3,1.6-3.4,2-.4.1-.7.5-1.1.6,0,0,0,0,.2,0h0c-.3.2-.6.3-.9.4-.9.4-1.9.8-2.9,1.1-2,.7-4.2,1.2-6.6,1.4-.8,0-1.9.2-2.7.4h-2.2c-.3,0-.5.1-.8.2-.5,0-.9,0-1.4,0-.2,0-.4,0-.6,0-.6,0-1.2,0-1.7-.2-.5,0-1-.1-1.5-.2-2.1-.4-4.2-.8-6.1-1.5-1.6-.6-3.4-1.4-4.8-2.2-.7-.4-1.5-1-2.2-1.4-.3-.2-.5-.4-.8-.6-.9-.6-1.7-1.2-2.6-1.9.1.3.7.7,1,.8,0,0,0,0,0,0-.3,0-.4-.3-.7-.4.2.2.5.4.7.6-.6-.2-.9-.7-1.3-1-1-.7-1.8-1.5-2.8-2.1,0,0,.2.2.3.3h0c-.3,0-.6-.2-.7-.5,0,0,0,0,0,0-.5-.5-1-.9-1.4-1.4-.2-.3-.4-.7-.7-.8l.5.7c-.2,0-.2-.3-.4-.4,0,0,0,0,0,0l.6.8c-.1-.1-.2-.2-.3-.3,0,0,0,.1,0,.2h0s0,0,0,0c-.2-.3-.9-1.2-1.3-1.4.1.2.3.4.5.6-.2,0-.4-.4-.5-.6,0,0,0,0-.1,0,.4.8,1.5,1.9,2.1,2.6,0,.1.7.9.8,1,.4.2.5.4.6.6,0,0,0,0,0,0,0,0,.1.2.2.2,0,0,0,0,0,0,.2.1.3.2.4.4h.1c0,.1,0,.1-.1.1.1.2.4.2.5.4,0,0,0,0,0,0,0,.1.2.1.4.2.3.3.6.5.8.8.3.2.5.4.8.6.3.3.6.5.9.8,1,.7,2,1.3,3,2,.3.1.5.3.8.4.2.2.4.3.6.5.3.2.5.2.7.4h0s0,0-.1,0c.2,0,.4.2.6.3,0,0,0,0,0,0,.7.2,1.1.5,1.7.8,1.1.4,2.3.8,3.2,1.3.2,0,.4,0,.6.1.5.1,1,.4,1.5.5h.3c.6.2,1.3.4,2,.4,0,0,0,0,0,0,1,.2,2.1.4,3.1.5,0,0,0,0,0,0l3.1.3c.3,0,.4-.2.7,0,.5.2,2,0,2.5,0,.6,0,1.3,0,1.9,0,1.1-.2,2.3-.4,3.4-.6.2,0,.5-.2.8-.3h0c0,0,0,0-.1.1,2.5-.5,4.9-1.4,7-2.4,1.7-.9,3.5-1.5,5-2.7.2-.1.4-.2.7-.3.6-.5,1.3-.9,1.9-1.4.8-.8,1.9-1.6,2.8-2.3.3-.3.7-.6,1-.9.2-.2.3-.5.5-.6,0,0,0,0,0,.1.4-.2,1-1,1.3-1.4.9-1.2,2-2.2,2.8-3.5,0,0-.1,0-.2.1.3-.4.5-.7.8-1.1.4-.9,1.1-1.7,1.5-2.6.5-.9.9-1.9,1.3-2.9.4-.8.8-1.6,1-2.4h0c.2-.6.4-1.2.6-1.8,0-.5.1-1,.3-1.4h0s0,0,0,0c0,0,0,.1,0,.2h0c.2-1.1.4-2.2.7-3.2,0,0,0,0,0,.1h0c0-.7.3-1.7.5-2.4v-.8c0-.5.1-.9.2-1.4,0-.2-.1-.5-.1-.9ZM303.7,246.1c-.1,0-.2.1-.3.2,0,0,.2-.1.3-.2h0ZM304.2,245.8s0,0,0-.1c0,0,0,0,0,0h-.2ZM304.4,245.7c.2-.2.4-.3.6-.5,0,0-.5.4-.6.5ZM256.8,240.3s0,0,0,0c0-.1-.2-.3-.3-.4.1,0,.3.2.3.3h0ZM257.4,240.6c.2.2.4.4.6.6-.2-.1-.5-.4-.6-.6ZM259.6,242.3c.1,0,.3.2.3.3-.1,0-.3-.2-.3-.3ZM263.6,244.9c.2,0,.3.2.4.3-.1-.1-.3-.2-.4-.3ZM284.1,254.4s0,0,0,0h.6c-.2,0-.4,0-.7,0ZM307.5,243.4c-.4.3-.8.6-1.2.9h0c.5-.4,1-.9,1.5-1.3-.1.1-.2.2-.3.4ZM308.3,242.7c.3-.5.9-.9,1.3-1.3,0,.2-1.1,1.1-1.3,1.3ZM313.3,237.2c-.4.5-.8,1-1.1,1.6-.4.4-.8.9-1.3,1.3-.4.4-.7.7-1.1,1.1,0-.2.8-1,1-1.2,0,.1-.2.2-.3.3.4-.2.5-.7.8-1,.5-.6,1-1.2,1.5-1.8.2-.3.6-.5.8-.9,0,.1-.2.2-.3.3.3-.4.6-.8.9-1.2h0c0,.2-.8,1.2-1,1.4ZM314.4,235.6c.3-.5.7-1,1-1.6,0,.2-.8,1.5-1,1.6ZM321.5,216c0-.1,0-.3,0-.4,0,.1,0,.3,0,.4ZM321.7,206.6c-.1-.1-.2-.5-.2-.7.1.2.2.5.2.7ZM321.7,206.8c0,.1,0,.3.1.4h0c-.1,0-.2-.2-.1-.4ZM321.9,211.2c0,0,0-.3,0-.4,0,0,0,.3,0,.4ZM322,208.8c0-.3-.1-.6-.2-.9.1.2.2.6.2.9ZM322,226.1h0c0,0,0,0,0,0,0,0,0,0,0,0ZM323,212.4c-.1-.2-.1-.6,0-.9,0,.3,0,.5.1.8,0,0,0,0,0,0Z"/>
      <path class="st0" d="M320.5,218h0c0,0,0,0,0,0,0,0,0,0,0,0Z"/>
      <path class="st0" d="M255.8,239.1s0,0,0,0h0Z"/>
      <path class="st0" d="M259.6,243.7c-.1-.1-.2-.2-.3-.3,0,0,0,0,0,0-.2-.1-.3-.2-.4-.3.4.3.7.7,1.1,1h0c0-.1-.2-.3-.4-.5Z"/>
    </g>
    <g>
      <path class="st1" d="M394,214.4l-3.1,28.6h-11.6l-6-53.7h8.2l4.5,42.3,4.1-42.3h8.1l4.2,42.6,4.4-42.6h7.4l-6,53.7h-11.2l-3.1-28.6Z"/>
      <path class="st1" d="M428.4,212h11.6v7.7h-11.6v15.7h14.6v7.7h-23v-53.7h23v7.7h-14.6v14.9Z"/>
      <path class="st1" d="M474.9,201.7v1.9c0,5.5-1.7,9-5.4,10.8,4.5,1.8,6.3,5.8,6.3,11.5v4.4c0,8.3-4.4,12.7-12.8,12.7h-13.3v-53.7h12.7c8.7,0,12.5,4.1,12.5,12.3ZM458.1,197v14.2h3.3c3.1,0,5.1-1.4,5.1-5.7v-3c0-3.8-1.3-5.5-4.3-5.5h-4.1ZM458.1,218.9v16.5h4.8c2.8,0,4.4-1.3,4.4-5.3v-4.7c0-5-1.6-6.5-5.4-6.5h-3.8Z"/>
      <path class="st1" d="M495.8,189.3h13.3c8.4,0,12.6,4.7,12.6,13.3v27.1c0,8.6-4.1,13.3-12.6,13.3h-13.3v-53.7ZM504.2,197v38.3h4.8c2.7,0,4.3-1.4,4.3-5.2v-27.9c0-3.8-1.6-5.2-4.3-5.2h-4.8Z"/>
      <path class="st1" d="M537,212h11.6v7.7h-11.6v15.7h14.6v7.7h-23v-53.7h23v7.7h-14.6v14.9Z"/>
      <path class="st1" d="M569.7,188.7c8.2,0,12.4,4.9,12.4,13.5v1.7h-8v-2.2c0-3.8-1.5-5.3-4.2-5.3s-4.2,1.5-4.2,5.3c0,11,16.5,13.1,16.5,28.4s-4.3,13.5-12.6,13.5-12.6-4.9-12.6-13.5v-3.3h8v3.8c0,3.8,1.7,5.2,4.4,5.2s4.4-1.4,4.4-5.2c0-11-16.5-13.1-16.5-28.4s4.2-13.5,12.4-13.5Z"/>
      <path class="st1" d="M588.5,189.3h8.4v53.7h-8.4v-53.7Z"/>
      <path class="st1" d="M617.3,213.1h11.8v17c0,8.6-4.3,13.5-12.6,13.5s-12.6-4.9-12.6-13.5v-27.9c0-8.6,4.3-13.5,12.6-13.5s12.6,4.9,12.6,13.5v5.2h-8v-5.7c0-3.8-1.7-5.3-4.4-5.3s-4.4,1.5-4.4,5.3v29c0,3.8,1.7,5.2,4.4,5.2s4.4-1.4,4.4-5.2v-9.9h-3.8v-7.7Z"/>
      <path class="st1" d="M643.6,204.1v38.9h-7.6v-53.7h10.6l8.7,32.1v-32.1h7.5v53.7h-8.7l-10.5-38.9Z"/>
      <path class="st1" d="M709,201.7v1.9c0,5.5-1.7,9-5.4,10.8,4.5,1.8,6.3,5.8,6.3,11.5v4.4c0,8.3-4.4,12.7-12.8,12.7h-13.3v-53.7h12.7c8.7,0,12.5,4.1,12.5,12.3ZM692.2,197v14.2h3.3c3.1,0,5.1-1.4,5.1-5.7v-3c0-3.8-1.3-5.5-4.3-5.5h-4.1ZM692.2,218.9v16.5h4.8c2.8,0,4.4-1.3,4.4-5.3v-4.7c0-5-1.6-6.5-5.4-6.5h-3.8Z"/>
      <path class="st1" d="M723.1,225.2l-10.7-35.9h8.8l6.4,24.5,6.4-24.5h8l-10.7,35.9v17.8h-8.4v-17.8Z"/>
      <path class="st1" d="M769,213.2h10.9v7.7h-10.9v22.2h-8.4v-53.7h22.3v7.7h-13.9v16.2Z"/>
      <path class="st1" d="M806.1,243c-.5-1.4-.8-2.2-.8-6.6v-8.4c0-5-1.7-6.8-5.5-6.8h-2.9v21.8h-8.4v-53.7h12.7c8.7,0,12.5,4.1,12.5,12.3v4.2c0,5.5-1.8,9.1-5.5,10.9,4.2,1.8,5.6,5.8,5.6,11.4v8.3c0,2.6,0,4.5.9,6.5h-8.6ZM796.9,197v16.5h3.3c3.1,0,5.1-1.4,5.1-5.7v-5.3c0-3.8-1.3-5.5-4.3-5.5h-4.1Z"/>
      <path class="st1" d="M829.2,212h11.6v7.7h-11.6v15.7h14.6v7.7h-23v-53.7h23v7.7h-14.6v14.9Z"/>
      <path class="st1" d="M861.9,188.7c8.2,0,12.4,4.9,12.4,13.5v1.7h-8v-2.2c0-3.8-1.5-5.3-4.2-5.3s-4.2,1.5-4.2,5.3c0,11,16.5,13.1,16.5,28.4s-4.3,13.5-12.6,13.5-12.6-4.9-12.6-13.5v-3.3h8v3.8c0,3.8,1.7,5.2,4.4,5.2s4.4-1.4,4.4-5.2c0-11-16.5-13.1-16.5-28.4s4.2-13.5,12.4-13.5Z"/>
      <path class="st1" d="M889.2,243h-8.4v-53.7h8.4v23h9.6v-23h8.6v53.7h-8.6v-23h-9.6v23Z"/>
      <path class="st1" d="M933.7,214.4l-3.1,28.6h-11.6l-6-53.7h8.2l4.5,42.3,4.1-42.3h8.1l4.2,42.6,4.4-42.6h7.4l-6,53.7h-11.2l-3.1-28.6Z"/>
      <path class="st1" d="M959,202.2c0-8.6,4.5-13.5,12.8-13.5s12.8,4.9,12.8,13.5v27.9c0,8.6-4.5,13.5-12.8,13.5s-12.8-4.9-12.8-13.5v-27.9ZM967.4,230.7c0,3.8,1.7,5.3,4.4,5.3s4.4-1.5,4.4-5.3v-29c0-3.8-1.7-5.3-4.4-5.3s-4.4,1.5-4.4,5.3v29Z"/>
      <path class="st1" d="M1009.2,243c-.5-1.4-.8-2.2-.8-6.6v-8.4c0-5-1.7-6.8-5.5-6.8h-2.9v21.8h-8.4v-53.7h12.7c8.7,0,12.5,4.1,12.5,12.3v4.2c0,5.5-1.8,9.1-5.5,10.9,4.2,1.8,5.6,5.8,5.6,11.4v8.3c0,2.6,0,4.5.9,6.5h-8.6ZM1000,197v16.5h3.3c3.1,0,5.1-1.4,5.1-5.7v-5.3c0-3.8-1.3-5.5-4.3-5.5h-4.1Z"/>
      <path class="st1" d="M1035,221.6l-2.6,4.9v16.5h-8.4v-53.7h8.4v23.4l11-23.4h8.4l-11.7,23.9,11.7,29.7h-8.7l-8.2-21.4Z"/>
      <path class="st1" d="M1065.6,213.2h10.9v7.7h-10.9v22.2h-8.4v-53.7h22.3v7.7h-13.9v16.2Z"/>
      <path class="st1" d="M1111.4,243h-8.5l-1.5-9.7h-10.3l-1.5,9.7h-7.7l8.6-53.7h12.3l8.6,53.7ZM1092.1,226h8.1l-4.1-27.1-4.1,27.1Z"/>
      <path class="st1" d="M1141.3,223v7.1c0,8.6-4.3,13.5-12.6,13.5s-12.6-4.9-12.6-13.5v-27.9c0-8.6,4.3-13.5,12.6-13.5s12.6,4.9,12.6,13.5v5.2h-8v-5.7c0-3.8-1.7-5.3-4.4-5.3s-4.4,1.5-4.4,5.3v29c0,3.8,1.7,5.2,4.4,5.2s4.4-1.4,4.4-5.2v-7.7h8Z"/>
      <path class="st1" d="M1145.5,189.3h26.1v7.7h-8.8v46h-8.4v-46h-8.8v-7.7Z"/>
      <path class="st1" d="M1176.1,202.2c0-8.6,4.5-13.5,12.8-13.5s12.8,4.9,12.8,13.5v27.9c0,8.6-4.5,13.5-12.8,13.5s-12.8-4.9-12.8-13.5v-27.9ZM1184.5,230.7c0,3.8,1.7,5.3,4.4,5.3s4.4-1.5,4.4-5.3v-29c0-3.8-1.7-5.3-4.4-5.3s-4.4,1.5-4.4,5.3v29Z"/>
      <path class="st1" d="M1226.3,243c-.5-1.4-.8-2.2-.8-6.6v-8.4c0-5-1.7-6.8-5.5-6.8h-2.9v21.8h-8.4v-53.7h12.7c8.7,0,12.5,4.1,12.5,12.3v4.2c0,5.5-1.8,9.1-5.5,10.9,4.2,1.8,5.6,5.8,5.6,11.4v8.3c0,2.6,0,4.5.9,6.5h-8.6ZM1217.1,197v16.5h3.3c3.1,0,5.1-1.4,5.1-5.7v-5.3c0-3.8-1.3-5.5-4.3-5.5h-4.1Z"/>
      <path class="st1" d="M1248.1,225.2l-10.7-35.9h8.8l6.4,24.5,6.4-24.5h8l-10.7,35.9v17.8h-8.4v-17.8Z"/>
      <path class="st1" d="M1274.1,234.9v8.1h-8.1v-8.1h8.1Z"/>
      <path class="st1" d="M1305.5,223v7.1c0,8.6-4.3,13.5-12.6,13.5s-12.6-4.9-12.6-13.5v-27.9c0-8.6,4.3-13.5,12.6-13.5s12.6,4.9,12.6,13.5v5.2h-8v-5.7c0-3.8-1.7-5.3-4.4-5.3s-4.4,1.5-4.4,5.3v29c0,3.8,1.7,5.2,4.4,5.2s4.4-1.4,4.4-5.2v-7.7h8Z"/>
      <path class="st1" d="M1311.4,202.2c0-8.6,4.5-13.5,12.8-13.5s12.8,4.9,12.8,13.5v27.9c0,8.6-4.5,13.5-12.8,13.5s-12.8-4.9-12.8-13.5v-27.9ZM1319.9,230.7c0,3.8,1.7,5.3,4.4,5.3s4.4-1.5,4.4-5.3v-29c0-3.8-1.7-5.3-4.4-5.3s-4.4,1.5-4.4,5.3v29Z"/>
      <path class="st1" d="M1361.9,227.4l5.7-38.1h11.7v53.7h-8v-38.5l-5.8,38.5h-8l-6.3-37.9v37.9h-7.4v-53.7h11.7l6.2,38.1Z"/>
      <path class="st1" d="M1425.2,189.3v7.4l-12.4,46.3h-8.4l12.3-46h-16.8v-7.7h25.3Z"/>
      <path class="st1" d="M1448.6,202.5c0-4.8-1.7-6.1-4.4-6.1s-4.4,1.5-4.4,5.3v3.4h-8v-2.9c0-8.6,4.3-13.5,12.6-13.5s12.6,4.9,12.6,13.5v1.4c0,5.8-1.8,9.4-5.9,11,4.2,1.8,5.9,5.8,5.9,11.3v4.2c0,8.6-4.3,13.5-12.6,13.5s-12.6-4.9-12.6-13.5v-4.4h8v5c0,3.8,1.7,5.3,4.4,5.3s4.4-1.3,4.4-6.1v-4.2c0-5-1.7-6.8-5.5-6.8h-2.8v-7.7h3.3c3.1,0,5.1-1.4,5.1-5.7v-3Z"/>
      <path class="st1" d="M1462.2,225.6l15.3-36.3h9.2v36.3h4v7.7h-4v9.7h-8.3v-9.7h-16.3v-7.7ZM1478.5,225.6v-20.2l-8.5,20.2h8.5Z"/>
      <path class="st1" d="M1495.7,212.3h15.3v7.7h-15.3v-7.7Z"/>
      <path class="st1" d="M1530.7,196.4c-2.7,0-4.4,1.5-4.4,5.3v5.7h-8v-5.2c0-8.6,4.3-13.5,12.6-13.5s12.6,4.9,12.6,13.5c0,16.9-16.8,23.2-16.8,32s0,.8,0,1.1h15.9v7.7h-24.4v-6.6c0-15.8,16.7-18.4,16.7-33.9s-1.7-6.1-4.4-6.1Z"/>
      <path class="st1" d="M1562.6,196.4c-2.7,0-4.4,1.5-4.4,5.3v5.7h-8v-5.2c0-8.6,4.3-13.5,12.6-13.5s12.6,4.9,12.6,13.5c0,16.9-16.8,23.2-16.8,32s0,.8,0,1.1h15.9v7.7h-24.4v-6.6c0-15.8,16.7-18.4,16.7-33.9s-1.7-6.1-4.4-6.1Z"/>
      <path class="st1" d="M1580.1,225.6l15.3-36.3h9.2v36.3h4v7.7h-4v9.7h-8.3v-9.7h-16.3v-7.7ZM1596.4,225.6v-20.2l-8.5,20.2h8.5Z"/>
      <path class="st1" d="M1613.6,212.3h15.3v7.7h-15.3v-7.7Z"/>
      <path class="st1" d="M1652.5,202.5c0-4.8-1.7-6.1-4.4-6.1s-4.4,1.5-4.4,5.3v3.4h-8v-2.9c0-8.6,4.3-13.5,12.6-13.5s12.6,4.9,12.6,13.5v1.4c0,5.8-1.8,9.4-5.9,11,4.2,1.8,5.9,5.8,5.9,11.3v4.2c0,8.6-4.3,13.5-12.6,13.5s-12.6-4.9-12.6-13.5v-4.4h8v5c0,3.8,1.7,5.3,4.4,5.3s4.4-1.3,4.4-6.1v-4.2c0-5-1.7-6.8-5.5-6.8h-2.8v-7.7h3.3c3.1,0,5.1-1.4,5.1-5.7v-3Z"/>
      <path class="st1" d="M1684.4,202.5c0-4.8-1.7-6.1-4.4-6.1s-4.4,1.5-4.4,5.3v3.4h-8v-2.9c0-8.6,4.3-13.5,12.6-13.5s12.6,4.9,12.6,13.5v1.4c0,5.8-1.8,9.4-5.9,11,4.2,1.8,5.9,5.8,5.9,11.3v4.2c0,8.6-4.3,13.5-12.6,13.5s-12.6-4.9-12.6-13.5v-4.4h8v5c0,3.8,1.7,5.3,4.4,5.3s4.4-1.3,4.4-6.1v-4.2c0-5-1.7-6.8-5.5-6.8h-2.8v-7.7h3.3c3.1,0,5.1-1.4,5.1-5.7v-3Z"/>
      <path class="st1" d="M1699.3,202.2c0-8.6,4.5-13.5,12.8-13.5s12.8,4.9,12.8,13.5v27.9c0,8.6-4.5,13.5-12.8,13.5s-12.8-4.9-12.8-13.5v-27.9ZM1707.7,230.7c0,3.8,1.7,5.3,4.4,5.3s4.4-1.5,4.4-5.3v-29c0-3.8-1.7-5.3-4.4-5.3s-4.4,1.5-4.4,5.3v29Z"/>
      <path class="st1" d="M1731.2,202.2c0-8.6,4.5-13.5,12.8-13.5s12.8,4.9,12.8,13.5v27.9c0,8.6-4.5,13.5-12.8,13.5s-12.8-4.9-12.8-13.5v-27.9ZM1739.6,230.7c0,3.8,1.7,5.3,4.4,5.3s4.4-1.5,4.4-5.3v-29c0-3.8-1.7-5.3-4.4-5.3s-4.4,1.5-4.4,5.3v29Z"/>
    </g>
  </g>
</svg>